<?xml version="1.0" encoding="utf-8" standalone="no"?>
<!DOCTYPE svg PUBLIC "-//W3C//DTD SVG 1.1//EN"
  "http://www.w3.org/Graphics/SVG/1.1/DTD/svg11.dtd">
<svg xmlns:xlink="http://www.w3.org/1999/xlink" width="332.4pt" height="191.678125pt" viewBox="0 0 332.4 191.678125" xmlns="http://www.w3.org/2000/svg" version="1.1">
 <metadata>
  <rdf:RDF xmlns:dc="http://purl.org/dc/elements/1.1/" xmlns:cc="http://creativecommons.org/ns#" xmlns:rdf="http://www.w3.org/1999/02/22-rdf-syntax-ns#">
   <cc:Work>
    <dc:type rdf:resource="http://purl.org/dc/dcmitype/StillImage"/>
    <dc:date>2025-02-22T18:41:13.828047</dc:date>
    <dc:format>image/svg+xml</dc:format>
    <dc:creator>
     <cc:Agent>
      <dc:title>Matplotlib v3.10.0, https://matplotlib.org/</dc:title>
     </cc:Agent>
    </dc:creator>
   </cc:Work>
  </rdf:RDF>
 </metadata>
 <defs>
  <style type="text/css">*{stroke-linejoin: round; stroke-linecap: butt}</style>
 </defs>
 <g id="figure_1">
  <g id="patch_1">
   <path d="M 0 191.678125 
L 332.4 191.678125 
L 332.4 0 
L 0 0 
L 0 191.678125 
z
" style="fill: none"/>
  </g>
  <g id="axes_1">
   <g id="patch_2">
    <path d="M 28.2 174.6 
L 325.2 174.6 
L 325.2 7.2 
L 28.2 7.2 
L 28.2 174.6 
z
" style="fill: none"/>
   </g>
   <g id="matplotlib.axis_1">
    <g id="xtick_1">
     <g id="line2d_1">
      <path d="M 57.9 174.6 
L 57.9 7.2 
" clip-path="url(#p0e1c60bfeb)" style="fill: none; stroke-dasharray: 3.2,0.8,0.5,0.8; stroke-dashoffset: 0; stroke: #000000; stroke-opacity: 0.5; stroke-width: 0.5"/>
     </g>
     <g id="line2d_2">
      <defs>
       <path id="md0b2168465" d="M 0 0 
L 0 -6 
" style="stroke: #000000; stroke-width: 0.5"/>
      </defs>
      <g>
       <use xlink:href="#md0b2168465" x="57.9" y="174.6" style="stroke: #000000; stroke-width: 0.5"/>
      </g>
     </g>
     <g id="line2d_3">
      <defs>
       <path id="mcbf65bea71" d="M 0 0 
L 0 6 
" style="stroke: #000000; stroke-width: 0.5"/>
      </defs>
      <g>
       <use xlink:href="#mcbf65bea71" x="57.9" y="7.2" style="stroke: #000000; stroke-width: 0.5"/>
      </g>
     </g>
     <g id="text_1">
      <!-- $\mathdefault{274}$ -->
      <g transform="translate(50.4 182.539062) scale(0.1 -0.1)">
       <defs>
        <path id="Cmr10-32" d="M 319 0 
L 319 172 
Q 319 188 331 206 
L 1325 1306 
Q 1550 1550 1690 1715 
Q 1831 1881 1968 2097 
Q 2106 2313 2186 2536 
Q 2266 2759 2266 3009 
Q 2266 3272 2169 3511 
Q 2072 3750 1880 3894 
Q 1688 4038 1416 4038 
Q 1138 4038 916 3870 
Q 694 3703 603 3438 
Q 628 3444 672 3444 
Q 816 3444 917 3347 
Q 1019 3250 1019 3097 
Q 1019 2950 917 2848 
Q 816 2747 672 2747 
Q 522 2747 420 2851 
Q 319 2956 319 3097 
Q 319 3338 409 3548 
Q 500 3759 670 3923 
Q 841 4088 1055 4175 
Q 1269 4263 1509 4263 
Q 1875 4263 2190 4108 
Q 2506 3953 2690 3670 
Q 2875 3388 2875 3009 
Q 2875 2731 2753 2481 
Q 2631 2231 2440 2026 
Q 2250 1822 1953 1562 
Q 1656 1303 1563 1216 
L 838 519 
L 1453 519 
Q 1906 519 2211 526 
Q 2516 534 2534 550 
Q 2609 631 2688 1141 
L 2875 1141 
L 2694 0 
L 319 0 
z
" transform="scale(0.015625)"/>
        <path id="Cmr10-37" d="M 1113 166 
Q 1113 522 1175 862 
Q 1238 1203 1358 1536 
Q 1478 1869 1648 2189 
Q 1819 2509 2022 2791 
L 2606 3603 
L 1875 3603 
Q 738 3603 703 3572 
Q 619 3469 544 2981 
L 359 2981 
L 569 4325 
L 756 4325 
L 756 4306 
Q 756 4191 1147 4156 
Q 1538 4122 1913 4122 
L 3103 4122 
L 3103 3956 
Q 3103 3950 3101 3947 
Q 3100 3944 3097 3938 
L 2216 2700 
Q 1891 2219 1809 1631 
Q 1728 1044 1728 166 
Q 1728 41 1637 -50 
Q 1547 -141 1422 -141 
Q 1294 -141 1203 -50 
Q 1113 41 1113 166 
z
" transform="scale(0.015625)"/>
        <path id="Cmr10-34" d="M 178 1056 
L 178 1281 
L 2156 4231 
Q 2178 4263 2222 4263 
L 2316 4263 
Q 2388 4263 2388 4191 
L 2388 1281 
L 3016 1281 
L 3016 1056 
L 2388 1056 
L 2388 428 
Q 2388 297 2575 261 
Q 2763 225 3009 225 
L 3009 0 
L 1247 0 
L 1247 225 
Q 1494 225 1681 261 
Q 1869 297 1869 428 
L 1869 1056 
L 178 1056 
z
M 391 1281 
L 1906 1281 
L 1906 3547 
L 391 1281 
z
" transform="scale(0.015625)"/>
       </defs>
       <use xlink:href="#Cmr10-32" transform="translate(0 0.421875)"/>
       <use xlink:href="#Cmr10-37" transform="translate(50 0.421875)"/>
       <use xlink:href="#Cmr10-34" transform="translate(100 0.421875)"/>
      </g>
     </g>
    </g>
    <g id="xtick_2">
     <g id="line2d_4">
      <path d="M 117.3 174.6 
L 117.3 7.2 
" clip-path="url(#p0e1c60bfeb)" style="fill: none; stroke-dasharray: 3.2,0.8,0.5,0.8; stroke-dashoffset: 0; stroke: #000000; stroke-opacity: 0.5; stroke-width: 0.5"/>
     </g>
     <g id="line2d_5">
      <g>
       <use xlink:href="#md0b2168465" x="117.3" y="174.6" style="stroke: #000000; stroke-width: 0.5"/>
      </g>
     </g>
     <g id="line2d_6">
      <g>
       <use xlink:href="#mcbf65bea71" x="117.3" y="7.2" style="stroke: #000000; stroke-width: 0.5"/>
      </g>
     </g>
     <g id="text_2">
      <!-- $\mathdefault{276}$ -->
      <g transform="translate(109.8 182.539062) scale(0.1 -0.1)">
       <defs>
        <path id="Cmr10-36" d="M 1600 -141 
Q 1203 -141 937 70 
Q 672 281 526 617 
Q 381 953 325 1322 
Q 269 1691 269 2069 
Q 269 2575 466 3084 
Q 663 3594 1045 3928 
Q 1428 4263 1953 4263 
Q 2172 4263 2361 4180 
Q 2550 4097 2658 3936 
Q 2766 3775 2766 3547 
Q 2766 3416 2677 3327 
Q 2588 3238 2456 3238 
Q 2331 3238 2240 3328 
Q 2150 3419 2150 3547 
Q 2150 3672 2240 3762 
Q 2331 3853 2456 3853 
L 2491 3853 
Q 2409 3969 2261 4023 
Q 2113 4078 1953 4078 
Q 1759 4078 1595 3993 
Q 1431 3909 1300 3765 
Q 1169 3622 1081 3448 
Q 994 3275 945 3053 
Q 897 2831 884 2637 
Q 872 2444 872 2150 
Q 984 2413 1190 2580 
Q 1397 2747 1656 2747 
Q 1941 2747 2175 2631 
Q 2409 2516 2578 2311 
Q 2747 2106 2836 1843 
Q 2925 1581 2925 1313 
Q 2925 938 2758 598 
Q 2591 259 2287 59 
Q 1984 -141 1600 -141 
z
M 1600 63 
Q 1847 63 1997 175 
Q 2147 288 2217 473 
Q 2288 659 2305 848 
Q 2322 1038 2322 1313 
Q 2322 1675 2287 1931 
Q 2253 2188 2100 2383 
Q 1947 2578 1631 2578 
Q 1372 2578 1205 2403 
Q 1038 2228 961 1961 
Q 884 1694 884 1447 
Q 884 1363 891 1319 
Q 891 1309 889 1303 
Q 888 1297 884 1288 
Q 884 1013 940 731 
Q 997 450 1156 256 
Q 1316 63 1600 63 
z
" transform="scale(0.015625)"/>
       </defs>
       <use xlink:href="#Cmr10-32" transform="translate(0 0.421875)"/>
       <use xlink:href="#Cmr10-37" transform="translate(50 0.421875)"/>
       <use xlink:href="#Cmr10-36" transform="translate(100 0.421875)"/>
      </g>
     </g>
    </g>
    <g id="xtick_3">
     <g id="line2d_7">
      <path d="M 176.7 174.6 
L 176.7 7.2 
" clip-path="url(#p0e1c60bfeb)" style="fill: none; stroke-dasharray: 3.2,0.8,0.5,0.8; stroke-dashoffset: 0; stroke: #000000; stroke-opacity: 0.5; stroke-width: 0.5"/>
     </g>
     <g id="line2d_8">
      <g>
       <use xlink:href="#md0b2168465" x="176.7" y="174.6" style="stroke: #000000; stroke-width: 0.5"/>
      </g>
     </g>
     <g id="line2d_9">
      <g>
       <use xlink:href="#mcbf65bea71" x="176.7" y="7.2" style="stroke: #000000; stroke-width: 0.5"/>
      </g>
     </g>
     <g id="text_3">
      <!-- $\mathdefault{278}$ -->
      <g transform="translate(169.2 182.539062) scale(0.1 -0.1)">
       <defs>
        <path id="Cmr10-38" d="M 269 972 
Q 269 1356 522 1651 
Q 775 1947 1172 2144 
L 934 2297 
Q 716 2441 578 2680 
Q 441 2919 441 3181 
Q 441 3488 602 3734 
Q 763 3981 1030 4122 
Q 1297 4263 1600 4263 
Q 1884 4263 2148 4147 
Q 2413 4031 2583 3815 
Q 2753 3600 2753 3303 
Q 2753 3088 2651 2903 
Q 2550 2719 2373 2572 
Q 2197 2425 1997 2322 
L 2363 2088 
Q 2616 1922 2770 1653 
Q 2925 1384 2925 1088 
Q 2925 741 2739 456 
Q 2553 172 2247 15 
Q 1941 -141 1600 -141 
Q 1269 -141 961 -6 
Q 653 128 461 383 
Q 269 638 269 972 
z
M 616 972 
Q 616 719 755 509 
Q 894 300 1122 181 
Q 1350 63 1600 63 
Q 1972 63 2275 280 
Q 2578 497 2578 856 
Q 2578 978 2529 1098 
Q 2481 1219 2395 1317 
Q 2309 1416 2203 1478 
L 1344 2034 
Q 1144 1928 976 1765 
Q 809 1603 712 1400 
Q 616 1197 616 972 
z
M 1056 2925 
L 1831 2425 
Q 2100 2581 2272 2803 
Q 2444 3025 2444 3303 
Q 2444 3519 2323 3698 
Q 2203 3878 2009 3978 
Q 1816 4078 1594 4078 
Q 1400 4078 1203 4003 
Q 1006 3928 878 3779 
Q 750 3631 750 3431 
Q 750 3131 1056 2925 
z
" transform="scale(0.015625)"/>
       </defs>
       <use xlink:href="#Cmr10-32" transform="translate(0 0.421875)"/>
       <use xlink:href="#Cmr10-37" transform="translate(50 0.421875)"/>
       <use xlink:href="#Cmr10-38" transform="translate(100 0.421875)"/>
      </g>
     </g>
    </g>
    <g id="xtick_4">
     <g id="line2d_10">
      <path d="M 236.1 174.6 
L 236.1 7.2 
" clip-path="url(#p0e1c60bfeb)" style="fill: none; stroke-dasharray: 3.2,0.8,0.5,0.8; stroke-dashoffset: 0; stroke: #000000; stroke-opacity: 0.5; stroke-width: 0.5"/>
     </g>
     <g id="line2d_11">
      <g>
       <use xlink:href="#md0b2168465" x="236.1" y="174.6" style="stroke: #000000; stroke-width: 0.5"/>
      </g>
     </g>
     <g id="line2d_12">
      <g>
       <use xlink:href="#mcbf65bea71" x="236.1" y="7.2" style="stroke: #000000; stroke-width: 0.5"/>
      </g>
     </g>
     <g id="text_4">
      <!-- $\mathdefault{280}$ -->
      <g transform="translate(228.6 182.539062) scale(0.1 -0.1)">
       <defs>
        <path id="Cmr10-30" d="M 1600 -141 
Q 816 -141 533 504 
Q 250 1150 250 2041 
Q 250 2597 351 3087 
Q 453 3578 754 3920 
Q 1056 4263 1600 4263 
Q 2022 4263 2290 4056 
Q 2559 3850 2700 3523 
Q 2841 3197 2892 2823 
Q 2944 2450 2944 2041 
Q 2944 1491 2842 1011 
Q 2741 531 2444 195 
Q 2147 -141 1600 -141 
z
M 1600 25 
Q 1956 25 2131 390 
Q 2306 756 2347 1200 
Q 2388 1644 2388 2144 
Q 2388 2625 2347 3031 
Q 2306 3438 2132 3767 
Q 1959 4097 1600 4097 
Q 1238 4097 1063 3765 
Q 888 3434 847 3029 
Q 806 2625 806 2144 
Q 806 1788 823 1472 
Q 841 1156 916 820 
Q 991 484 1158 254 
Q 1325 25 1600 25 
z
" transform="scale(0.015625)"/>
       </defs>
       <use xlink:href="#Cmr10-32" transform="translate(0 0.390625)"/>
       <use xlink:href="#Cmr10-38" transform="translate(50 0.390625)"/>
       <use xlink:href="#Cmr10-30" transform="translate(100 0.390625)"/>
      </g>
     </g>
    </g>
    <g id="xtick_5">
     <g id="line2d_13">
      <path d="M 295.5 174.6 
L 295.5 7.2 
" clip-path="url(#p0e1c60bfeb)" style="fill: none; stroke-dasharray: 3.2,0.8,0.5,0.8; stroke-dashoffset: 0; stroke: #000000; stroke-opacity: 0.5; stroke-width: 0.5"/>
     </g>
     <g id="line2d_14">
      <g>
       <use xlink:href="#md0b2168465" x="295.5" y="174.6" style="stroke: #000000; stroke-width: 0.5"/>
      </g>
     </g>
     <g id="line2d_15">
      <g>
       <use xlink:href="#mcbf65bea71" x="295.5" y="7.2" style="stroke: #000000; stroke-width: 0.5"/>
      </g>
     </g>
     <g id="text_5">
      <!-- $\mathdefault{282}$ -->
      <g transform="translate(288 182.539062) scale(0.1 -0.1)">
       <use xlink:href="#Cmr10-32" transform="translate(0 0.390625)"/>
       <use xlink:href="#Cmr10-38" transform="translate(50 0.390625)"/>
       <use xlink:href="#Cmr10-32" transform="translate(100 0.390625)"/>
      </g>
     </g>
    </g>
   </g>
   <g id="matplotlib.axis_2">
    <g id="ytick_1">
     <g id="line2d_16">
      <path d="M 28.2 174.6 
L 325.2 174.6 
" clip-path="url(#p0e1c60bfeb)" style="fill: none; stroke-dasharray: 3.2,0.8,0.5,0.8; stroke-dashoffset: 0; stroke: #000000; stroke-opacity: 0.5; stroke-width: 0.5"/>
     </g>
     <g id="line2d_17">
      <defs>
       <path id="m1bda020fa4" d="M 0 0 
L 6 0 
" style="stroke: #000000; stroke-width: 0.5"/>
      </defs>
      <g>
       <use xlink:href="#m1bda020fa4" x="28.2" y="174.6" style="stroke: #000000; stroke-width: 0.5"/>
      </g>
     </g>
     <g id="line2d_18">
      <defs>
       <path id="m94d75842c4" d="M 0 0 
L -6 0 
" style="stroke: #000000; stroke-width: 0.5"/>
      </defs>
      <g>
       <use xlink:href="#m94d75842c4" x="325.2" y="174.6" style="stroke: #000000; stroke-width: 0.5"/>
      </g>
     </g>
     <g id="text_6">
      <!-- $\mathdefault{0}$ -->
      <g transform="translate(22.2 178.069531) scale(0.1 -0.1)">
       <use xlink:href="#Cmr10-30" transform="translate(0 0.390625)"/>
      </g>
     </g>
    </g>
    <g id="ytick_2">
     <g id="line2d_19">
      <path d="M 28.2 149.704845 
L 325.2 149.704845 
" clip-path="url(#p0e1c60bfeb)" style="fill: none; stroke-dasharray: 3.2,0.8,0.5,0.8; stroke-dashoffset: 0; stroke: #000000; stroke-opacity: 0.5; stroke-width: 0.5"/>
     </g>
     <g id="line2d_20">
      <g>
       <use xlink:href="#m1bda020fa4" x="28.2" y="149.704845" style="stroke: #000000; stroke-width: 0.5"/>
      </g>
     </g>
     <g id="line2d_21">
      <g>
       <use xlink:href="#m94d75842c4" x="325.2" y="149.704845" style="stroke: #000000; stroke-width: 0.5"/>
      </g>
     </g>
     <g id="text_7">
      <!-- $\mathdefault{250}$ -->
      <g transform="translate(12.2 153.174376) scale(0.1 -0.1)">
       <defs>
        <path id="Cmr10-35" d="M 556 728 
Q 622 541 758 387 
Q 894 234 1080 148 
Q 1266 63 1466 63 
Q 1928 63 2103 422 
Q 2278 781 2278 1294 
Q 2278 1516 2270 1667 
Q 2263 1819 2228 1959 
Q 2169 2184 2020 2353 
Q 1872 2522 1656 2522 
Q 1441 2522 1286 2456 
Q 1131 2391 1034 2303 
Q 938 2216 863 2119 
Q 788 2022 769 2016 
L 697 2016 
Q 681 2016 657 2036 
Q 634 2056 634 2075 
L 634 4213 
Q 634 4228 654 4245 
Q 675 4263 697 4263 
L 716 4263 
Q 1147 4056 1631 4056 
Q 2106 4056 2547 4263 
L 2566 4263 
Q 2588 4263 2606 4247 
Q 2625 4231 2625 4213 
L 2625 4153 
Q 2625 4122 2613 4122 
Q 2394 3831 2064 3668 
Q 1734 3506 1381 3506 
Q 1125 3506 856 3578 
L 856 2369 
Q 1069 2541 1236 2614 
Q 1403 2688 1663 2688 
Q 2016 2688 2295 2484 
Q 2575 2281 2725 1954 
Q 2875 1628 2875 1288 
Q 2875 903 2686 575 
Q 2497 247 2172 53 
Q 1847 -141 1466 -141 
Q 1150 -141 886 21 
Q 622 184 470 459 
Q 319 734 319 1044 
Q 319 1188 412 1278 
Q 506 1369 647 1369 
Q 788 1369 883 1276 
Q 978 1184 978 1044 
Q 978 906 883 811 
Q 788 716 647 716 
Q 625 716 597 720 
Q 569 725 556 728 
z
" transform="scale(0.015625)"/>
       </defs>
       <use xlink:href="#Cmr10-32" transform="translate(0 0.390625)"/>
       <use xlink:href="#Cmr10-35" transform="translate(50 0.390625)"/>
       <use xlink:href="#Cmr10-30" transform="translate(100 0.390625)"/>
      </g>
     </g>
    </g>
    <g id="ytick_3">
     <g id="line2d_22">
      <path d="M 28.2 124.80969 
L 325.2 124.80969 
" clip-path="url(#p0e1c60bfeb)" style="fill: none; stroke-dasharray: 3.2,0.8,0.5,0.8; stroke-dashoffset: 0; stroke: #000000; stroke-opacity: 0.5; stroke-width: 0.5"/>
     </g>
     <g id="line2d_23">
      <g>
       <use xlink:href="#m1bda020fa4" x="28.2" y="124.80969" style="stroke: #000000; stroke-width: 0.5"/>
      </g>
     </g>
     <g id="line2d_24">
      <g>
       <use xlink:href="#m94d75842c4" x="325.2" y="124.80969" style="stroke: #000000; stroke-width: 0.5"/>
      </g>
     </g>
     <g id="text_8">
      <!-- $\mathdefault{500}$ -->
      <g transform="translate(12.2 128.279222) scale(0.1 -0.1)">
       <use xlink:href="#Cmr10-35" transform="translate(0 0.390625)"/>
       <use xlink:href="#Cmr10-30" transform="translate(50 0.390625)"/>
       <use xlink:href="#Cmr10-30" transform="translate(100 0.390625)"/>
      </g>
     </g>
    </g>
    <g id="ytick_4">
     <g id="line2d_25">
      <path d="M 28.2 99.914536 
L 325.2 99.914536 
" clip-path="url(#p0e1c60bfeb)" style="fill: none; stroke-dasharray: 3.2,0.8,0.5,0.8; stroke-dashoffset: 0; stroke: #000000; stroke-opacity: 0.5; stroke-width: 0.5"/>
     </g>
     <g id="line2d_26">
      <g>
       <use xlink:href="#m1bda020fa4" x="28.2" y="99.914536" style="stroke: #000000; stroke-width: 0.5"/>
      </g>
     </g>
     <g id="line2d_27">
      <g>
       <use xlink:href="#m94d75842c4" x="325.2" y="99.914536" style="stroke: #000000; stroke-width: 0.5"/>
      </g>
     </g>
     <g id="text_9">
      <!-- $\mathdefault{750}$ -->
      <g transform="translate(12.2 103.384067) scale(0.1 -0.1)">
       <use xlink:href="#Cmr10-37" transform="translate(0 0.421875)"/>
       <use xlink:href="#Cmr10-35" transform="translate(50 0.421875)"/>
       <use xlink:href="#Cmr10-30" transform="translate(100 0.421875)"/>
      </g>
     </g>
    </g>
    <g id="ytick_5">
     <g id="line2d_28">
      <path d="M 28.2 75.019381 
L 325.2 75.019381 
" clip-path="url(#p0e1c60bfeb)" style="fill: none; stroke-dasharray: 3.2,0.8,0.5,0.8; stroke-dashoffset: 0; stroke: #000000; stroke-opacity: 0.5; stroke-width: 0.5"/>
     </g>
     <g id="line2d_29">
      <g>
       <use xlink:href="#m1bda020fa4" x="28.2" y="75.019381" style="stroke: #000000; stroke-width: 0.5"/>
      </g>
     </g>
     <g id="line2d_30">
      <g>
       <use xlink:href="#m94d75842c4" x="325.2" y="75.019381" style="stroke: #000000; stroke-width: 0.5"/>
      </g>
     </g>
     <g id="text_10">
      <!-- $\mathdefault{1000}$ -->
      <g transform="translate(7.2 78.488912) scale(0.1 -0.1)">
       <defs>
        <path id="Cmr10-31" d="M 594 0 
L 594 225 
Q 1394 225 1394 428 
L 1394 3788 
Q 1063 3628 556 3628 
L 556 3853 
Q 1341 3853 1741 4263 
L 1831 4263 
Q 1853 4263 1873 4245 
Q 1894 4228 1894 4206 
L 1894 428 
Q 1894 225 2694 225 
L 2694 0 
L 594 0 
z
" transform="scale(0.015625)"/>
       </defs>
       <use xlink:href="#Cmr10-31" transform="translate(0 0.390625)"/>
       <use xlink:href="#Cmr10-30" transform="translate(50 0.390625)"/>
       <use xlink:href="#Cmr10-30" transform="translate(100 0.390625)"/>
       <use xlink:href="#Cmr10-30" transform="translate(150 0.390625)"/>
      </g>
     </g>
    </g>
    <g id="ytick_6">
     <g id="line2d_31">
      <path d="M 28.2 50.124226 
L 325.2 50.124226 
" clip-path="url(#p0e1c60bfeb)" style="fill: none; stroke-dasharray: 3.2,0.8,0.5,0.8; stroke-dashoffset: 0; stroke: #000000; stroke-opacity: 0.5; stroke-width: 0.5"/>
     </g>
     <g id="line2d_32">
      <g>
       <use xlink:href="#m1bda020fa4" x="28.2" y="50.124226" style="stroke: #000000; stroke-width: 0.5"/>
      </g>
     </g>
     <g id="line2d_33">
      <g>
       <use xlink:href="#m94d75842c4" x="325.2" y="50.124226" style="stroke: #000000; stroke-width: 0.5"/>
      </g>
     </g>
     <g id="text_11">
      <!-- $\mathdefault{1250}$ -->
      <g transform="translate(7.2 53.593757) scale(0.1 -0.1)">
       <use xlink:href="#Cmr10-31" transform="translate(0 0.390625)"/>
       <use xlink:href="#Cmr10-32" transform="translate(50 0.390625)"/>
       <use xlink:href="#Cmr10-35" transform="translate(100 0.390625)"/>
       <use xlink:href="#Cmr10-30" transform="translate(150 0.390625)"/>
      </g>
     </g>
    </g>
    <g id="ytick_7">
     <g id="line2d_34">
      <path d="M 28.2 25.229071 
L 325.2 25.229071 
" clip-path="url(#p0e1c60bfeb)" style="fill: none; stroke-dasharray: 3.2,0.8,0.5,0.8; stroke-dashoffset: 0; stroke: #000000; stroke-opacity: 0.5; stroke-width: 0.5"/>
     </g>
     <g id="line2d_35">
      <g>
       <use xlink:href="#m1bda020fa4" x="28.2" y="25.229071" style="stroke: #000000; stroke-width: 0.5"/>
      </g>
     </g>
     <g id="line2d_36">
      <g>
       <use xlink:href="#m94d75842c4" x="325.2" y="25.229071" style="stroke: #000000; stroke-width: 0.5"/>
      </g>
     </g>
     <g id="text_12">
      <!-- $\mathdefault{1500}$ -->
      <g transform="translate(7.2 28.698602) scale(0.1 -0.1)">
       <use xlink:href="#Cmr10-31" transform="translate(0 0.390625)"/>
       <use xlink:href="#Cmr10-35" transform="translate(50 0.390625)"/>
       <use xlink:href="#Cmr10-30" transform="translate(100 0.390625)"/>
       <use xlink:href="#Cmr10-30" transform="translate(150 0.390625)"/>
      </g>
     </g>
    </g>
   </g>
   <g id="patch_3">
    <path d="M 69.8001 174.6 
L 76.058771 174.6 
L 76.058771 173.305452 
L 69.8001 173.305452 
z
" clip-path="url(#p0e1c60bfeb)" style="fill: #5790fc; fill-opacity: 0.5"/>
   </g>
   <g id="patch_4">
    <path d="M 76.058771 174.6 
L 82.317442 174.6 
L 82.317442 170.915517 
L 76.058771 170.915517 
z
" clip-path="url(#p0e1c60bfeb)" style="fill: #5790fc; fill-opacity: 0.5"/>
   </g>
   <g id="patch_5">
    <path d="M 82.317442 174.6 
L 88.576113 174.6 
L 88.576113 162.650326 
L 82.317442 162.650326 
z
" clip-path="url(#p0e1c60bfeb)" style="fill: #5790fc; fill-opacity: 0.5"/>
   </g>
   <g id="patch_6">
    <path d="M 88.576113 174.6 
L 94.834785 174.6 
L 94.834785 143.730008 
L 88.576113 143.730008 
z
" clip-path="url(#p0e1c60bfeb)" style="fill: #5790fc; fill-opacity: 0.5"/>
   </g>
   <g id="patch_7">
    <path d="M 94.834785 174.6 
L 101.093456 174.6 
L 101.093456 121.025627 
L 94.834785 121.025627 
z
" clip-path="url(#p0e1c60bfeb)" style="fill: #5790fc; fill-opacity: 0.5"/>
   </g>
   <g id="patch_8">
    <path d="M 101.093456 174.6 
L 107.352127 174.6 
L 107.352127 95.83173 
L 101.093456 95.83173 
z
" clip-path="url(#p0e1c60bfeb)" style="fill: #5790fc; fill-opacity: 0.5"/>
   </g>
   <g id="patch_9">
    <path d="M 107.352127 174.6 
L 113.610798 174.6 
L 113.610798 74.023575 
L 107.352127 74.023575 
z
" clip-path="url(#p0e1c60bfeb)" style="fill: #5790fc; fill-opacity: 0.5"/>
   </g>
   <g id="patch_10">
    <path d="M 113.610798 174.6 
L 119.86947 174.6 
L 119.86947 57.393611 
L 113.610798 57.393611 
z
" clip-path="url(#p0e1c60bfeb)" style="fill: #5790fc; fill-opacity: 0.5"/>
   </g>
   <g id="patch_11">
    <path d="M 119.86947 174.6 
L 126.128141 174.6 
L 126.128141 35.386294 
L 119.86947 35.386294 
z
" clip-path="url(#p0e1c60bfeb)" style="fill: #5790fc; fill-opacity: 0.5"/>
   </g>
   <g id="patch_12">
    <path d="M 126.128141 174.6 
L 132.386812 174.6 
L 132.386812 15.171429 
L 126.128141 15.171429 
z
" clip-path="url(#p0e1c60bfeb)" style="fill: #5790fc; fill-opacity: 0.5"/>
   </g>
   <g id="patch_13">
    <path d="M 132.386812 174.6 
L 138.645483 174.6 
L 138.645483 15.868493 
L 132.386812 15.868493 
z
" clip-path="url(#p0e1c60bfeb)" style="fill: #5790fc; fill-opacity: 0.5"/>
   </g>
   <g id="patch_14">
    <path d="M 138.645483 174.6 
L 144.904155 174.6 
L 144.904155 16.565557 
L 138.645483 16.565557 
z
" clip-path="url(#p0e1c60bfeb)" style="fill: #5790fc; fill-opacity: 0.5"/>
   </g>
   <g id="patch_15">
    <path d="M 144.904155 174.6 
L 151.162826 174.6 
L 151.162826 33.793004 
L 144.904155 33.793004 
z
" clip-path="url(#p0e1c60bfeb)" style="fill: #5790fc; fill-opacity: 0.5"/>
   </g>
   <g id="patch_16">
    <path d="M 151.162826 174.6 
L 157.421497 174.6 
L 157.421497 51.817096 
L 151.162826 51.817096 
z
" clip-path="url(#p0e1c60bfeb)" style="fill: #5790fc; fill-opacity: 0.5"/>
   </g>
   <g id="patch_17">
    <path d="M 157.421497 174.6 
L 163.680168 174.6 
L 163.680168 60.978513 
L 157.421497 60.978513 
z
" clip-path="url(#p0e1c60bfeb)" style="fill: #5790fc; fill-opacity: 0.5"/>
   </g>
   <g id="patch_18">
    <path d="M 163.680168 174.6 
L 169.938839 174.6 
L 169.938839 70.836995 
L 163.680168 70.836995 
z
" clip-path="url(#p0e1c60bfeb)" style="fill: #5790fc; fill-opacity: 0.5"/>
   </g>
   <g id="patch_19">
    <path d="M 169.938839 174.6 
L 176.197511 174.6 
L 176.197511 70.637833 
L 169.938839 70.637833 
z
" clip-path="url(#p0e1c60bfeb)" style="fill: #5790fc; fill-opacity: 0.5"/>
   </g>
   <g id="patch_20">
    <path d="M 176.197511 174.6 
L 182.456182 174.6 
L 182.456182 96.727956 
L 176.197511 96.727956 
z
" clip-path="url(#p0e1c60bfeb)" style="fill: #5790fc; fill-opacity: 0.5"/>
   </g>
   <g id="patch_21">
    <path d="M 182.456182 174.6 
L 188.714853 174.6 
L 188.714853 97.624181 
L 182.456182 97.624181 
z
" clip-path="url(#p0e1c60bfeb)" style="fill: #5790fc; fill-opacity: 0.5"/>
   </g>
   <g id="patch_22">
    <path d="M 188.714853 174.6 
L 194.973524 174.6 
L 194.973524 99.814955 
L 188.714853 99.814955 
z
" clip-path="url(#p0e1c60bfeb)" style="fill: #5790fc; fill-opacity: 0.5"/>
   </g>
   <g id="patch_23">
    <path d="M 194.973524 174.6 
L 201.232196 174.6 
L 201.232196 101.607406 
L 194.973524 101.607406 
z
" clip-path="url(#p0e1c60bfeb)" style="fill: #5790fc; fill-opacity: 0.5"/>
   </g>
   <g id="patch_24">
    <path d="M 201.232196 174.6 
L 207.490867 174.6 
L 207.490867 98.221665 
L 201.232196 98.221665 
z
" clip-path="url(#p0e1c60bfeb)" style="fill: #5790fc; fill-opacity: 0.5"/>
   </g>
   <g id="patch_25">
    <path d="M 207.490867 174.6 
L 213.749538 174.6 
L 213.749538 110.470081 
L 207.490867 110.470081 
z
" clip-path="url(#p0e1c60bfeb)" style="fill: #5790fc; fill-opacity: 0.5"/>
   </g>
   <g id="patch_26">
    <path d="M 213.749538 174.6 
L 220.008209 174.6 
L 220.008209 106.586437 
L 213.749538 106.586437 
z
" clip-path="url(#p0e1c60bfeb)" style="fill: #5790fc; fill-opacity: 0.5"/>
   </g>
   <g id="patch_27">
    <path d="M 220.008209 174.6 
L 226.266881 174.6 
L 226.266881 89.657732 
L 220.008209 89.657732 
z
" clip-path="url(#p0e1c60bfeb)" style="fill: #5790fc; fill-opacity: 0.5"/>
   </g>
   <g id="patch_28">
    <path d="M 226.266881 174.6 
L 232.525552 174.6 
L 232.525552 70.737414 
L 226.266881 70.737414 
z
" clip-path="url(#p0e1c60bfeb)" style="fill: #5790fc; fill-opacity: 0.5"/>
   </g>
   <g id="patch_29">
    <path d="M 232.525552 174.6 
L 238.784223 174.6 
L 238.784223 59.484804 
L 232.525552 59.484804 
z
" clip-path="url(#p0e1c60bfeb)" style="fill: #5790fc; fill-opacity: 0.5"/>
   </g>
   <g id="patch_30">
    <path d="M 238.784223 174.6 
L 245.042894 174.6 
L 245.042894 51.219613 
L 238.784223 51.219613 
z
" clip-path="url(#p0e1c60bfeb)" style="fill: #5790fc; fill-opacity: 0.5"/>
   </g>
   <g id="patch_31">
    <path d="M 245.042894 174.6 
L 251.301565 174.6 
L 251.301565 40.265745 
L 245.042894 40.265745 
z
" clip-path="url(#p0e1c60bfeb)" style="fill: #5790fc; fill-opacity: 0.5"/>
   </g>
   <g id="patch_32">
    <path d="M 251.301565 174.6 
L 257.560237 174.6 
L 257.560237 46.638904 
L 251.301565 46.638904 
z
" clip-path="url(#p0e1c60bfeb)" style="fill: #5790fc; fill-opacity: 0.5"/>
   </g>
   <g id="patch_33">
    <path d="M 257.560237 174.6 
L 263.818908 174.6 
L 263.818908 74.9198 
L 257.560237 74.9198 
z
" clip-path="url(#p0e1c60bfeb)" style="fill: #5790fc; fill-opacity: 0.5"/>
   </g>
   <g id="patch_34">
    <path d="M 263.818908 174.6 
L 270.077579 174.6 
L 270.077579 99.914536 
L 263.818908 99.914536 
z
" clip-path="url(#p0e1c60bfeb)" style="fill: #5790fc; fill-opacity: 0.5"/>
   </g>
   <g id="patch_35">
    <path d="M 270.077579 174.6 
L 276.33625 174.6 
L 276.33625 122.220594 
L 270.077579 122.220594 
z
" clip-path="url(#p0e1c60bfeb)" style="fill: #5790fc; fill-opacity: 0.5"/>
   </g>
   <g id="patch_36">
    <path d="M 276.33625 174.6 
L 282.594922 174.6 
L 282.594922 139.448041 
L 276.33625 139.448041 
z
" clip-path="url(#p0e1c60bfeb)" style="fill: #5790fc; fill-opacity: 0.5"/>
   </g>
   <g id="patch_37">
    <path d="M 282.594922 174.6 
L 288.853593 174.6 
L 288.853593 154.584296 
L 282.594922 154.584296 
z
" clip-path="url(#p0e1c60bfeb)" style="fill: #5790fc; fill-opacity: 0.5"/>
   </g>
   <g id="patch_38">
    <path d="M 288.853593 174.6 
L 295.112264 174.6 
L 295.112264 168.426002 
L 288.853593 168.426002 
z
" clip-path="url(#p0e1c60bfeb)" style="fill: #5790fc; fill-opacity: 0.5"/>
   </g>
   <g id="patch_39">
    <path d="M 295.112264 174.6 
L 301.370935 174.6 
L 301.370935 172.508807 
L 295.112264 172.508807 
z
" clip-path="url(#p0e1c60bfeb)" style="fill: #5790fc; fill-opacity: 0.5"/>
   </g>
   <g id="patch_40">
    <path d="M 301.370935 174.6 
L 307.629607 174.6 
L 307.629607 173.703774 
L 301.370935 173.703774 
z
" clip-path="url(#p0e1c60bfeb)" style="fill: #5790fc; fill-opacity: 0.5"/>
   </g>
   <g id="patch_41">
    <path d="M 307.629607 174.6 
L 313.888278 174.6 
L 313.888278 173.205871 
L 307.629607 173.205871 
z
" clip-path="url(#p0e1c60bfeb)" style="fill: #5790fc; fill-opacity: 0.5"/>
   </g>
   <g id="line2d_37">
    <path d="M 69.8001 173.377049 
L 72.253247 172.619832 
L 74.706395 171.46666 
L 75.932969 170.693245 
L 77.159542 169.760368 
L 78.386116 168.646565 
L 79.61269 167.331163 
L 80.839264 165.795162 
L 82.065837 164.022108 
L 83.292411 161.998917 
L 84.518985 159.71662 
L 85.745559 157.170987 
L 88.198706 151.298824 
L 90.651854 144.453115 
L 93.105001 136.778794 
L 96.784722 124.144033 
L 109.05046 80.432719 
L 113.956755 64.562208 
L 120.089624 45.585322 
L 122.542771 38.453747 
L 124.995919 31.993752 
L 126.222493 29.131679 
L 127.449066 26.573497 
L 128.67564 24.355801 
L 129.902214 22.506757 
L 131.128788 21.045081 
L 132.355361 19.979947 
L 133.581935 19.311673 
L 134.808509 19.032915 
L 136.035083 19.130073 
L 137.261656 19.58468 
L 138.48823 20.374593 
L 139.714804 21.474945 
L 140.941378 22.858857 
L 142.167952 24.497997 
L 144.621099 28.423994 
L 147.074247 33.012226 
L 150.753968 40.6008 
L 155.660263 50.764876 
L 158.11341 55.395941 
L 160.566558 59.576409 
L 163.019705 63.33853 
L 170.379148 73.980153 
L 172.832295 77.961478 
L 178.965164 88.303809 
L 181.418312 91.818041 
L 182.644886 93.31874 
L 183.871459 94.634829 
L 185.098033 95.768435 
L 186.324607 96.729346 
L 187.551181 97.532596 
L 190.004328 98.73947 
L 192.457476 99.543267 
L 196.137197 100.341205 
L 199.816918 101.14516 
L 202.270066 101.905457 
L 208.402934 104.153682 
L 209.629508 104.376007 
L 210.856082 104.403711 
L 212.082656 104.186817 
L 213.30923 103.683156 
L 214.535803 102.8616 
L 215.762377 101.704281 
L 216.988951 100.207669 
L 218.215525 98.382526 
L 219.442098 96.252861 
L 221.895246 91.230589 
L 224.348393 85.515217 
L 229.254688 73.684072 
L 231.707836 68.261026 
L 234.160983 63.432831 
L 236.614131 59.247324 
L 239.067278 55.685368 
L 241.520426 52.742601 
L 242.747 51.526981 
L 243.973573 50.511916 
L 245.200147 49.731819 
L 246.426721 49.229379 
L 247.653295 49.053125 
L 248.879869 49.253919 
L 250.106442 49.88065 
L 251.333016 50.975477 
L 252.55959 52.569102 
L 253.786164 54.676556 
L 255.012737 57.294073 
L 256.239311 60.397536 
L 257.465885 63.942892 
L 259.919032 72.100496 
L 263.598754 85.821117 
L 267.278475 99.626575 
L 270.958196 112.482855 
L 274.637917 124.181232 
L 277.091065 131.366496 
L 279.544213 138.087178 
L 281.99736 144.35727 
L 284.450508 150.165207 
L 286.903655 155.453423 
L 289.356803 160.120665 
L 291.80995 164.056867 
L 293.036524 165.726358 
L 294.263098 167.192487 
L 295.489671 168.458645 
L 296.716245 169.533409 
L 297.942819 170.429923 
L 299.169393 171.164944 
L 301.62254 172.228835 
L 304.075688 172.888665 
L 306.528835 173.297684 
L 311.43513 173.799556 
L 313.888278 174.001139 
L 313.888278 174.001139 
" clip-path="url(#p0e1c60bfeb)" style="fill: none; stroke: #5790fc; stroke-linecap: square"/>
   </g>
   <g id="LineCollection_1">
    <path d="M 182.097654 174.6 
L 182.097654 15.271009 
" clip-path="url(#p0e1c60bfeb)" style="fill: none; stroke: #ff0000"/>
   </g>
   <g id="patch_42">
    <path d="M 28.2 174.6 
L 28.2 7.2 
" style="fill: none; stroke: #000000; stroke-width: 0.8; stroke-linejoin: miter; stroke-linecap: square"/>
   </g>
   <g id="patch_43">
    <path d="M 325.2 174.6 
L 325.2 7.2 
" style="fill: none; stroke: #000000; stroke-width: 0.8; stroke-linejoin: miter; stroke-linecap: square"/>
   </g>
   <g id="patch_44">
    <path d="M 28.2 174.6 
L 325.2 174.6 
" style="fill: none; stroke: #000000; stroke-width: 0.8; stroke-linejoin: miter; stroke-linecap: square"/>
   </g>
   <g id="patch_45">
    <path d="M 28.2 7.2 
L 325.2 7.2 
" style="fill: none; stroke: #000000; stroke-width: 0.8; stroke-linejoin: miter; stroke-linecap: square"/>
   </g>
   <g id="legend_1">
    <g id="patch_46">
     <path d="M 262.048437 29.139062 
L 318.2 29.139062 
Q 320.2 29.139062 320.2 27.139062 
L 320.2 14.2 
Q 320.2 12.2 318.2 12.2 
L 262.048437 12.2 
Q 260.048437 12.2 260.048437 14.2 
L 260.048437 27.139062 
Q 260.048437 29.139062 262.048437 29.139062 
z
" style="fill: #ffffff; opacity: 0.8; stroke: #000000; stroke-linejoin: miter"/>
    </g>
    <g id="line2d_38">
     <path d="M 264.048437 19.7 
L 284.048437 19.7 
" style="fill: none; stroke: #ff0000"/>
    </g>
    <g id="text_13">
     <!-- Mean -->
     <g transform="translate(292.048437 23.2) scale(0.1 -0.1)">
      <defs>
       <path id="Cmr10-4d" d="M 225 0 
L 225 225 
Q 884 225 884 603 
L 884 3944 
Q 884 4147 225 4147 
L 225 4372 
L 1434 4372 
Q 1513 4372 1538 4300 
L 2931 678 
L 4325 4300 
Q 4350 4372 4428 4372 
L 5638 4372 
L 5638 4147 
Q 4978 4147 4978 3944 
L 4978 428 
Q 4978 225 5638 225 
L 5638 0 
L 3775 0 
L 3775 225 
Q 4434 225 4434 428 
L 4434 4153 
L 2859 72 
Q 2831 0 2753 0 
Q 2672 0 2644 72 
L 1088 4103 
L 1088 603 
Q 1088 225 1747 225 
L 1747 0 
L 225 0 
z
" transform="scale(0.015625)"/>
       <path id="Cmr10-65" d="M 1594 -72 
Q 1203 -72 876 133 
Q 550 338 364 680 
Q 178 1022 178 1403 
Q 178 1778 348 2115 
Q 519 2453 823 2661 
Q 1128 2869 1503 2869 
Q 1797 2869 2014 2770 
Q 2231 2672 2372 2497 
Q 2513 2322 2584 2084 
Q 2656 1847 2656 1563 
Q 2656 1478 2591 1478 
L 738 1478 
L 738 1409 
Q 738 878 952 497 
Q 1166 116 1650 116 
Q 1847 116 2014 203 
Q 2181 291 2304 447 
Q 2428 603 2472 781 
Q 2478 803 2495 820 
Q 2513 838 2534 838 
L 2591 838 
Q 2656 838 2656 756 
Q 2566 394 2266 161 
Q 1966 -72 1594 -72 
z
M 744 1638 
L 2203 1638 
Q 2203 1878 2136 2125 
Q 2069 2372 1912 2536 
Q 1756 2700 1503 2700 
Q 1141 2700 942 2361 
Q 744 2022 744 1638 
z
" transform="scale(0.015625)"/>
       <path id="Cmr10-61" d="M 256 628 
Q 256 1009 556 1248 
Q 856 1488 1276 1586 
Q 1697 1684 2075 1684 
L 2075 1947 
Q 2075 2131 1994 2304 
Q 1913 2478 1759 2589 
Q 1606 2700 1422 2700 
Q 997 2700 775 2509 
Q 897 2509 976 2417 
Q 1056 2325 1056 2203 
Q 1056 2075 965 1984 
Q 875 1894 750 1894 
Q 622 1894 531 1984 
Q 441 2075 441 2203 
Q 441 2541 747 2705 
Q 1053 2869 1422 2869 
Q 1681 2869 1943 2758 
Q 2206 2647 2373 2440 
Q 2541 2234 2541 1959 
L 2541 519 
Q 2541 394 2594 289 
Q 2647 184 2759 184 
Q 2866 184 2917 290 
Q 2969 397 2969 519 
L 2969 928 
L 3156 928 
L 3156 519 
Q 3156 375 3081 245 
Q 3006 116 2879 39 
Q 2753 -38 2606 -38 
Q 2419 -38 2283 107 
Q 2147 253 2131 453 
Q 2013 213 1781 70 
Q 1550 -72 1288 -72 
Q 1044 -72 808 0 
Q 572 72 414 226 
Q 256 381 256 628 
z
M 775 628 
Q 775 403 940 250 
Q 1106 97 1331 97 
Q 1538 97 1706 200 
Q 1875 303 1975 481 
Q 2075 659 2075 856 
L 2075 1522 
Q 1784 1522 1479 1426 
Q 1175 1331 975 1128 
Q 775 925 775 628 
z
" transform="scale(0.015625)"/>
       <path id="Cmr10-6e" d="M 191 0 
L 191 225 
Q 409 225 550 259 
Q 691 294 691 428 
L 691 2175 
Q 691 2347 639 2423 
Q 588 2500 491 2517 
Q 394 2534 191 2534 
L 191 2759 
L 1119 2828 
L 1119 2203 
Q 1247 2478 1498 2653 
Q 1750 2828 2047 2828 
Q 2491 2828 2714 2615 
Q 2938 2403 2938 1966 
L 2938 428 
Q 2938 294 3078 259 
Q 3219 225 3438 225 
L 3438 0 
L 1972 0 
L 1972 225 
Q 2191 225 2331 259 
Q 2472 294 2472 428 
L 2472 1947 
Q 2472 2259 2381 2461 
Q 2291 2663 2009 2663 
Q 1638 2663 1398 2366 
Q 1159 2069 1159 1691 
L 1159 428 
Q 1159 294 1300 259 
Q 1441 225 1656 225 
L 1656 0 
L 191 0 
z
" transform="scale(0.015625)"/>
      </defs>
      <use xlink:href="#Cmr10-4d"/>
      <use xlink:href="#Cmr10-65" transform="translate(91.601562 0)"/>
      <use xlink:href="#Cmr10-61" transform="translate(135.986328 0)"/>
      <use xlink:href="#Cmr10-6e" transform="translate(185.986328 0)"/>
     </g>
    </g>
   </g>
  </g>
 </g>
 <defs>
  <clipPath id="p0e1c60bfeb">
   <rect x="28.2" y="7.2" width="297" height="167.4"/>
  </clipPath>
 </defs>
</svg>
