<?xml version="1.0" encoding="utf-8" standalone="no"?>
<!DOCTYPE svg PUBLIC "-//W3C//DTD SVG 1.1//EN"
  "http://www.w3.org/Graphics/SVG/1.1/DTD/svg11.dtd">
<svg xmlns:xlink="http://www.w3.org/1999/xlink" width="342.048506pt" height="191.678125pt" viewBox="0 0 342.048506 191.678125" xmlns="http://www.w3.org/2000/svg" version="1.1">
 <metadata>
  <rdf:RDF xmlns:dc="http://purl.org/dc/elements/1.1/" xmlns:cc="http://creativecommons.org/ns#" xmlns:rdf="http://www.w3.org/1999/02/22-rdf-syntax-ns#">
   <cc:Work>
    <dc:type rdf:resource="http://purl.org/dc/dcmitype/StillImage"/>
    <dc:date>2025-02-22T18:48:57.077609</dc:date>
    <dc:format>image/svg+xml</dc:format>
    <dc:creator>
     <cc:Agent>
      <dc:title>Matplotlib v3.10.0, https://matplotlib.org/</dc:title>
     </cc:Agent>
    </dc:creator>
   </cc:Work>
  </rdf:RDF>
 </metadata>
 <defs>
  <style type="text/css">*{stroke-linejoin: round; stroke-linecap: butt}</style>
 </defs>
 <g id="figure_1">
  <g id="patch_1">
   <path d="M 0 191.678125 
L 342.048506 191.678125 
L 342.048506 0 
L 0 0 
L 0 191.678125 
z
" style="fill: none"/>
  </g>
  <g id="axes_1">
   <g id="patch_2">
    <path d="M 28.2 174.6 
L 325.2 174.6 
L 325.2 7.2 
L 28.2 7.2 
L 28.2 174.6 
z
" style="fill: none"/>
   </g>
   <g id="matplotlib.axis_1">
    <g id="xtick_1">
     <g id="line2d_1">
      <path d="M 44.719243 174.6 
L 44.719243 7.2 
" clip-path="url(#p71e58b2fd9)" style="fill: none; stroke-dasharray: 3.2,0.8,0.5,0.8; stroke-dashoffset: 0; stroke: #000000; stroke-opacity: 0.5; stroke-width: 0.5"/>
     </g>
     <g id="line2d_2">
      <defs>
       <path id="md92be55763" d="M 0 0 
L 0 -6 
" style="stroke: #000000; stroke-width: 0.5"/>
      </defs>
      <g>
       <use xlink:href="#md92be55763" x="44.719243" y="174.6" style="stroke: #000000; stroke-width: 0.5"/>
      </g>
     </g>
     <g id="line2d_3">
      <defs>
       <path id="me9929e26ac" d="M 0 0 
L 0 6 
" style="stroke: #000000; stroke-width: 0.5"/>
      </defs>
      <g>
       <use xlink:href="#me9929e26ac" x="44.719243" y="7.2" style="stroke: #000000; stroke-width: 0.5"/>
      </g>
     </g>
     <g id="text_1">
      <!-- $\mathdefault{−0.0015}$ -->
      <g transform="translate(26.919243 182.539062) scale(0.1 -0.1)">
       <defs>
        <path id="Cmsy10-a1" d="M 653 1472 
Q 600 1472 565 1512 
Q 531 1553 531 1600 
Q 531 1647 565 1687 
Q 600 1728 653 1728 
L 4325 1728 
Q 4375 1728 4408 1687 
Q 4441 1647 4441 1600 
Q 4441 1553 4408 1512 
Q 4375 1472 4325 1472 
L 653 1472 
z
" transform="scale(0.015625)"/>
        <path id="Cmr10-30" d="M 1600 -141 
Q 816 -141 533 504 
Q 250 1150 250 2041 
Q 250 2597 351 3087 
Q 453 3578 754 3920 
Q 1056 4263 1600 4263 
Q 2022 4263 2290 4056 
Q 2559 3850 2700 3523 
Q 2841 3197 2892 2823 
Q 2944 2450 2944 2041 
Q 2944 1491 2842 1011 
Q 2741 531 2444 195 
Q 2147 -141 1600 -141 
z
M 1600 25 
Q 1956 25 2131 390 
Q 2306 756 2347 1200 
Q 2388 1644 2388 2144 
Q 2388 2625 2347 3031 
Q 2306 3438 2132 3767 
Q 1959 4097 1600 4097 
Q 1238 4097 1063 3765 
Q 888 3434 847 3029 
Q 806 2625 806 2144 
Q 806 1788 823 1472 
Q 841 1156 916 820 
Q 991 484 1158 254 
Q 1325 25 1600 25 
z
" transform="scale(0.015625)"/>
        <path id="Cmr10-2e" d="M 538 353 
Q 538 497 644 600 
Q 750 703 891 703 
Q 978 703 1062 656 
Q 1147 609 1194 525 
Q 1241 441 1241 353 
Q 1241 213 1137 106 
Q 1034 0 891 0 
Q 750 0 644 106 
Q 538 213 538 353 
z
" transform="scale(0.015625)"/>
        <path id="Cmr10-31" d="M 594 0 
L 594 225 
Q 1394 225 1394 428 
L 1394 3788 
Q 1063 3628 556 3628 
L 556 3853 
Q 1341 3853 1741 4263 
L 1831 4263 
Q 1853 4263 1873 4245 
Q 1894 4228 1894 4206 
L 1894 428 
Q 1894 225 2694 225 
L 2694 0 
L 594 0 
z
" transform="scale(0.015625)"/>
        <path id="Cmr10-35" d="M 556 728 
Q 622 541 758 387 
Q 894 234 1080 148 
Q 1266 63 1466 63 
Q 1928 63 2103 422 
Q 2278 781 2278 1294 
Q 2278 1516 2270 1667 
Q 2263 1819 2228 1959 
Q 2169 2184 2020 2353 
Q 1872 2522 1656 2522 
Q 1441 2522 1286 2456 
Q 1131 2391 1034 2303 
Q 938 2216 863 2119 
Q 788 2022 769 2016 
L 697 2016 
Q 681 2016 657 2036 
Q 634 2056 634 2075 
L 634 4213 
Q 634 4228 654 4245 
Q 675 4263 697 4263 
L 716 4263 
Q 1147 4056 1631 4056 
Q 2106 4056 2547 4263 
L 2566 4263 
Q 2588 4263 2606 4247 
Q 2625 4231 2625 4213 
L 2625 4153 
Q 2625 4122 2613 4122 
Q 2394 3831 2064 3668 
Q 1734 3506 1381 3506 
Q 1125 3506 856 3578 
L 856 2369 
Q 1069 2541 1236 2614 
Q 1403 2688 1663 2688 
Q 2016 2688 2295 2484 
Q 2575 2281 2725 1954 
Q 2875 1628 2875 1288 
Q 2875 903 2686 575 
Q 2497 247 2172 53 
Q 1847 -141 1466 -141 
Q 1150 -141 886 21 
Q 622 184 470 459 
Q 319 734 319 1044 
Q 319 1188 412 1278 
Q 506 1369 647 1369 
Q 788 1369 883 1276 
Q 978 1184 978 1044 
Q 978 906 883 811 
Q 788 716 647 716 
Q 625 716 597 720 
Q 569 725 556 728 
z
" transform="scale(0.015625)"/>
       </defs>
       <use xlink:href="#Cmsy10-a1" transform="translate(0 0.390625)"/>
       <use xlink:href="#Cmr10-30" transform="translate(77.685547 0.390625)"/>
       <use xlink:href="#Cmr10-2e" transform="translate(127.685547 0.390625)"/>
       <use xlink:href="#Cmr10-30" transform="translate(155.371094 0.390625)"/>
       <use xlink:href="#Cmr10-30" transform="translate(205.371094 0.390625)"/>
       <use xlink:href="#Cmr10-31" transform="translate(255.371094 0.390625)"/>
       <use xlink:href="#Cmr10-35" transform="translate(305.371094 0.390625)"/>
      </g>
     </g>
    </g>
    <g id="xtick_2">
     <g id="line2d_4">
      <path d="M 79.247901 174.6 
L 79.247901 7.2 
" clip-path="url(#p71e58b2fd9)" style="fill: none; stroke-dasharray: 3.2,0.8,0.5,0.8; stroke-dashoffset: 0; stroke: #000000; stroke-opacity: 0.5; stroke-width: 0.5"/>
     </g>
     <g id="line2d_5">
      <g>
       <use xlink:href="#md92be55763" x="79.247901" y="174.6" style="stroke: #000000; stroke-width: 0.5"/>
      </g>
     </g>
     <g id="line2d_6">
      <g>
       <use xlink:href="#me9929e26ac" x="79.247901" y="7.2" style="stroke: #000000; stroke-width: 0.5"/>
      </g>
     </g>
     <g id="text_2">
      <!-- $\mathdefault{−0.0010}$ -->
      <g transform="translate(61.447901 182.539062) scale(0.1 -0.1)">
       <use xlink:href="#Cmsy10-a1" transform="translate(0 0.390625)"/>
       <use xlink:href="#Cmr10-30" transform="translate(77.685547 0.390625)"/>
       <use xlink:href="#Cmr10-2e" transform="translate(127.685547 0.390625)"/>
       <use xlink:href="#Cmr10-30" transform="translate(155.371094 0.390625)"/>
       <use xlink:href="#Cmr10-30" transform="translate(205.371094 0.390625)"/>
       <use xlink:href="#Cmr10-31" transform="translate(255.371094 0.390625)"/>
       <use xlink:href="#Cmr10-30" transform="translate(305.371094 0.390625)"/>
      </g>
     </g>
    </g>
    <g id="xtick_3">
     <g id="line2d_7">
      <path d="M 113.776559 174.6 
L 113.776559 7.2 
" clip-path="url(#p71e58b2fd9)" style="fill: none; stroke-dasharray: 3.2,0.8,0.5,0.8; stroke-dashoffset: 0; stroke: #000000; stroke-opacity: 0.5; stroke-width: 0.5"/>
     </g>
     <g id="line2d_8">
      <g>
       <use xlink:href="#md92be55763" x="113.776559" y="174.6" style="stroke: #000000; stroke-width: 0.5"/>
      </g>
     </g>
     <g id="line2d_9">
      <g>
       <use xlink:href="#me9929e26ac" x="113.776559" y="7.2" style="stroke: #000000; stroke-width: 0.5"/>
      </g>
     </g>
     <g id="text_3">
      <!-- $\mathdefault{−0.0005}$ -->
      <g transform="translate(95.976559 182.539062) scale(0.1 -0.1)">
       <use xlink:href="#Cmsy10-a1" transform="translate(0 0.390625)"/>
       <use xlink:href="#Cmr10-30" transform="translate(77.685547 0.390625)"/>
       <use xlink:href="#Cmr10-2e" transform="translate(127.685547 0.390625)"/>
       <use xlink:href="#Cmr10-30" transform="translate(155.371094 0.390625)"/>
       <use xlink:href="#Cmr10-30" transform="translate(205.371094 0.390625)"/>
       <use xlink:href="#Cmr10-30" transform="translate(255.371094 0.390625)"/>
       <use xlink:href="#Cmr10-35" transform="translate(305.371094 0.390625)"/>
      </g>
     </g>
    </g>
    <g id="xtick_4">
     <g id="line2d_10">
      <path d="M 148.305217 174.6 
L 148.305217 7.2 
" clip-path="url(#p71e58b2fd9)" style="fill: none; stroke-dasharray: 3.2,0.8,0.5,0.8; stroke-dashoffset: 0; stroke: #000000; stroke-opacity: 0.5; stroke-width: 0.5"/>
     </g>
     <g id="line2d_11">
      <g>
       <use xlink:href="#md92be55763" x="148.305217" y="174.6" style="stroke: #000000; stroke-width: 0.5"/>
      </g>
     </g>
     <g id="line2d_12">
      <g>
       <use xlink:href="#me9929e26ac" x="148.305217" y="7.2" style="stroke: #000000; stroke-width: 0.5"/>
      </g>
     </g>
     <g id="text_4">
      <!-- $\mathdefault{0.0000}$ -->
      <g transform="translate(134.405217 182.539062) scale(0.1 -0.1)">
       <use xlink:href="#Cmr10-30" transform="translate(0 0.390625)"/>
       <use xlink:href="#Cmr10-2e" transform="translate(50 0.390625)"/>
       <use xlink:href="#Cmr10-30" transform="translate(77.685547 0.390625)"/>
       <use xlink:href="#Cmr10-30" transform="translate(127.685547 0.390625)"/>
       <use xlink:href="#Cmr10-30" transform="translate(177.685547 0.390625)"/>
       <use xlink:href="#Cmr10-30" transform="translate(227.685547 0.390625)"/>
      </g>
     </g>
    </g>
    <g id="xtick_5">
     <g id="line2d_13">
      <path d="M 182.833875 174.6 
L 182.833875 7.2 
" clip-path="url(#p71e58b2fd9)" style="fill: none; stroke-dasharray: 3.2,0.8,0.5,0.8; stroke-dashoffset: 0; stroke: #000000; stroke-opacity: 0.5; stroke-width: 0.5"/>
     </g>
     <g id="line2d_14">
      <g>
       <use xlink:href="#md92be55763" x="182.833875" y="174.6" style="stroke: #000000; stroke-width: 0.5"/>
      </g>
     </g>
     <g id="line2d_15">
      <g>
       <use xlink:href="#me9929e26ac" x="182.833875" y="7.2" style="stroke: #000000; stroke-width: 0.5"/>
      </g>
     </g>
     <g id="text_5">
      <!-- $\mathdefault{0.0005}$ -->
      <g transform="translate(168.933875 182.539062) scale(0.1 -0.1)">
       <use xlink:href="#Cmr10-30" transform="translate(0 0.390625)"/>
       <use xlink:href="#Cmr10-2e" transform="translate(50 0.390625)"/>
       <use xlink:href="#Cmr10-30" transform="translate(77.685547 0.390625)"/>
       <use xlink:href="#Cmr10-30" transform="translate(127.685547 0.390625)"/>
       <use xlink:href="#Cmr10-30" transform="translate(177.685547 0.390625)"/>
       <use xlink:href="#Cmr10-35" transform="translate(227.685547 0.390625)"/>
      </g>
     </g>
    </g>
    <g id="xtick_6">
     <g id="line2d_16">
      <path d="M 217.362533 174.6 
L 217.362533 7.2 
" clip-path="url(#p71e58b2fd9)" style="fill: none; stroke-dasharray: 3.2,0.8,0.5,0.8; stroke-dashoffset: 0; stroke: #000000; stroke-opacity: 0.5; stroke-width: 0.5"/>
     </g>
     <g id="line2d_17">
      <g>
       <use xlink:href="#md92be55763" x="217.362533" y="174.6" style="stroke: #000000; stroke-width: 0.5"/>
      </g>
     </g>
     <g id="line2d_18">
      <g>
       <use xlink:href="#me9929e26ac" x="217.362533" y="7.2" style="stroke: #000000; stroke-width: 0.5"/>
      </g>
     </g>
     <g id="text_6">
      <!-- $\mathdefault{0.0010}$ -->
      <g transform="translate(203.462533 182.539062) scale(0.1 -0.1)">
       <use xlink:href="#Cmr10-30" transform="translate(0 0.390625)"/>
       <use xlink:href="#Cmr10-2e" transform="translate(50 0.390625)"/>
       <use xlink:href="#Cmr10-30" transform="translate(77.685547 0.390625)"/>
       <use xlink:href="#Cmr10-30" transform="translate(127.685547 0.390625)"/>
       <use xlink:href="#Cmr10-31" transform="translate(177.685547 0.390625)"/>
       <use xlink:href="#Cmr10-30" transform="translate(227.685547 0.390625)"/>
      </g>
     </g>
    </g>
    <g id="xtick_7">
     <g id="line2d_19">
      <path d="M 251.89119 174.6 
L 251.89119 7.2 
" clip-path="url(#p71e58b2fd9)" style="fill: none; stroke-dasharray: 3.2,0.8,0.5,0.8; stroke-dashoffset: 0; stroke: #000000; stroke-opacity: 0.5; stroke-width: 0.5"/>
     </g>
     <g id="line2d_20">
      <g>
       <use xlink:href="#md92be55763" x="251.89119" y="174.6" style="stroke: #000000; stroke-width: 0.5"/>
      </g>
     </g>
     <g id="line2d_21">
      <g>
       <use xlink:href="#me9929e26ac" x="251.89119" y="7.2" style="stroke: #000000; stroke-width: 0.5"/>
      </g>
     </g>
     <g id="text_7">
      <!-- $\mathdefault{0.0015}$ -->
      <g transform="translate(237.99119 182.539062) scale(0.1 -0.1)">
       <use xlink:href="#Cmr10-30" transform="translate(0 0.390625)"/>
       <use xlink:href="#Cmr10-2e" transform="translate(50 0.390625)"/>
       <use xlink:href="#Cmr10-30" transform="translate(77.685547 0.390625)"/>
       <use xlink:href="#Cmr10-30" transform="translate(127.685547 0.390625)"/>
       <use xlink:href="#Cmr10-31" transform="translate(177.685547 0.390625)"/>
       <use xlink:href="#Cmr10-35" transform="translate(227.685547 0.390625)"/>
      </g>
     </g>
    </g>
    <g id="xtick_8">
     <g id="line2d_22">
      <path d="M 286.419848 174.6 
L 286.419848 7.2 
" clip-path="url(#p71e58b2fd9)" style="fill: none; stroke-dasharray: 3.2,0.8,0.5,0.8; stroke-dashoffset: 0; stroke: #000000; stroke-opacity: 0.5; stroke-width: 0.5"/>
     </g>
     <g id="line2d_23">
      <g>
       <use xlink:href="#md92be55763" x="286.419848" y="174.6" style="stroke: #000000; stroke-width: 0.5"/>
      </g>
     </g>
     <g id="line2d_24">
      <g>
       <use xlink:href="#me9929e26ac" x="286.419848" y="7.2" style="stroke: #000000; stroke-width: 0.5"/>
      </g>
     </g>
     <g id="text_8">
      <!-- $\mathdefault{0.0020}$ -->
      <g transform="translate(272.519848 182.539062) scale(0.1 -0.1)">
       <defs>
        <path id="Cmr10-32" d="M 319 0 
L 319 172 
Q 319 188 331 206 
L 1325 1306 
Q 1550 1550 1690 1715 
Q 1831 1881 1968 2097 
Q 2106 2313 2186 2536 
Q 2266 2759 2266 3009 
Q 2266 3272 2169 3511 
Q 2072 3750 1880 3894 
Q 1688 4038 1416 4038 
Q 1138 4038 916 3870 
Q 694 3703 603 3438 
Q 628 3444 672 3444 
Q 816 3444 917 3347 
Q 1019 3250 1019 3097 
Q 1019 2950 917 2848 
Q 816 2747 672 2747 
Q 522 2747 420 2851 
Q 319 2956 319 3097 
Q 319 3338 409 3548 
Q 500 3759 670 3923 
Q 841 4088 1055 4175 
Q 1269 4263 1509 4263 
Q 1875 4263 2190 4108 
Q 2506 3953 2690 3670 
Q 2875 3388 2875 3009 
Q 2875 2731 2753 2481 
Q 2631 2231 2440 2026 
Q 2250 1822 1953 1562 
Q 1656 1303 1563 1216 
L 838 519 
L 1453 519 
Q 1906 519 2211 526 
Q 2516 534 2534 550 
Q 2609 631 2688 1141 
L 2875 1141 
L 2694 0 
L 319 0 
z
" transform="scale(0.015625)"/>
       </defs>
       <use xlink:href="#Cmr10-30" transform="translate(0 0.390625)"/>
       <use xlink:href="#Cmr10-2e" transform="translate(50 0.390625)"/>
       <use xlink:href="#Cmr10-30" transform="translate(77.685547 0.390625)"/>
       <use xlink:href="#Cmr10-30" transform="translate(127.685547 0.390625)"/>
       <use xlink:href="#Cmr10-32" transform="translate(177.685547 0.390625)"/>
       <use xlink:href="#Cmr10-30" transform="translate(227.685547 0.390625)"/>
      </g>
     </g>
    </g>
    <g id="xtick_9">
     <g id="line2d_25">
      <path d="M 320.948506 174.6 
L 320.948506 7.2 
" clip-path="url(#p71e58b2fd9)" style="fill: none; stroke-dasharray: 3.2,0.8,0.5,0.8; stroke-dashoffset: 0; stroke: #000000; stroke-opacity: 0.5; stroke-width: 0.5"/>
     </g>
     <g id="line2d_26">
      <g>
       <use xlink:href="#md92be55763" x="320.948506" y="174.6" style="stroke: #000000; stroke-width: 0.5"/>
      </g>
     </g>
     <g id="line2d_27">
      <g>
       <use xlink:href="#me9929e26ac" x="320.948506" y="7.2" style="stroke: #000000; stroke-width: 0.5"/>
      </g>
     </g>
     <g id="text_9">
      <!-- $\mathdefault{0.0025}$ -->
      <g transform="translate(307.048506 182.539062) scale(0.1 -0.1)">
       <use xlink:href="#Cmr10-30" transform="translate(0 0.390625)"/>
       <use xlink:href="#Cmr10-2e" transform="translate(50 0.390625)"/>
       <use xlink:href="#Cmr10-30" transform="translate(77.685547 0.390625)"/>
       <use xlink:href="#Cmr10-30" transform="translate(127.685547 0.390625)"/>
       <use xlink:href="#Cmr10-32" transform="translate(177.685547 0.390625)"/>
       <use xlink:href="#Cmr10-35" transform="translate(227.685547 0.390625)"/>
      </g>
     </g>
    </g>
   </g>
   <g id="matplotlib.axis_2">
    <g id="ytick_1">
     <g id="line2d_28">
      <path d="M 28.2 174.6 
L 325.2 174.6 
" clip-path="url(#p71e58b2fd9)" style="fill: none; stroke-dasharray: 3.2,0.8,0.5,0.8; stroke-dashoffset: 0; stroke: #000000; stroke-opacity: 0.5; stroke-width: 0.5"/>
     </g>
     <g id="line2d_29">
      <defs>
       <path id="m00209fa1db" d="M 0 0 
L 6 0 
" style="stroke: #000000; stroke-width: 0.5"/>
      </defs>
      <g>
       <use xlink:href="#m00209fa1db" x="28.2" y="174.6" style="stroke: #000000; stroke-width: 0.5"/>
      </g>
     </g>
     <g id="line2d_30">
      <defs>
       <path id="m3e7662621b" d="M 0 0 
L -6 0 
" style="stroke: #000000; stroke-width: 0.5"/>
      </defs>
      <g>
       <use xlink:href="#m3e7662621b" x="325.2" y="174.6" style="stroke: #000000; stroke-width: 0.5"/>
      </g>
     </g>
     <g id="text_10">
      <!-- $\mathdefault{0}$ -->
      <g transform="translate(22.2 178.069531) scale(0.1 -0.1)">
       <use xlink:href="#Cmr10-30" transform="translate(0 0.390625)"/>
      </g>
     </g>
    </g>
    <g id="ytick_2">
     <g id="line2d_31">
      <path d="M 28.2 148.028571 
L 325.2 148.028571 
" clip-path="url(#p71e58b2fd9)" style="fill: none; stroke-dasharray: 3.2,0.8,0.5,0.8; stroke-dashoffset: 0; stroke: #000000; stroke-opacity: 0.5; stroke-width: 0.5"/>
     </g>
     <g id="line2d_32">
      <g>
       <use xlink:href="#m00209fa1db" x="28.2" y="148.028571" style="stroke: #000000; stroke-width: 0.5"/>
      </g>
     </g>
     <g id="line2d_33">
      <g>
       <use xlink:href="#m3e7662621b" x="325.2" y="148.028571" style="stroke: #000000; stroke-width: 0.5"/>
      </g>
     </g>
     <g id="text_11">
      <!-- $\mathdefault{200}$ -->
      <g transform="translate(12.2 151.498103) scale(0.1 -0.1)">
       <use xlink:href="#Cmr10-32" transform="translate(0 0.390625)"/>
       <use xlink:href="#Cmr10-30" transform="translate(50 0.390625)"/>
       <use xlink:href="#Cmr10-30" transform="translate(100 0.390625)"/>
      </g>
     </g>
    </g>
    <g id="ytick_3">
     <g id="line2d_34">
      <path d="M 28.2 121.457143 
L 325.2 121.457143 
" clip-path="url(#p71e58b2fd9)" style="fill: none; stroke-dasharray: 3.2,0.8,0.5,0.8; stroke-dashoffset: 0; stroke: #000000; stroke-opacity: 0.5; stroke-width: 0.5"/>
     </g>
     <g id="line2d_35">
      <g>
       <use xlink:href="#m00209fa1db" x="28.2" y="121.457143" style="stroke: #000000; stroke-width: 0.5"/>
      </g>
     </g>
     <g id="line2d_36">
      <g>
       <use xlink:href="#m3e7662621b" x="325.2" y="121.457143" style="stroke: #000000; stroke-width: 0.5"/>
      </g>
     </g>
     <g id="text_12">
      <!-- $\mathdefault{400}$ -->
      <g transform="translate(12.2 124.926674) scale(0.1 -0.1)">
       <defs>
        <path id="Cmr10-34" d="M 178 1056 
L 178 1281 
L 2156 4231 
Q 2178 4263 2222 4263 
L 2316 4263 
Q 2388 4263 2388 4191 
L 2388 1281 
L 3016 1281 
L 3016 1056 
L 2388 1056 
L 2388 428 
Q 2388 297 2575 261 
Q 2763 225 3009 225 
L 3009 0 
L 1247 0 
L 1247 225 
Q 1494 225 1681 261 
Q 1869 297 1869 428 
L 1869 1056 
L 178 1056 
z
M 391 1281 
L 1906 1281 
L 1906 3547 
L 391 1281 
z
" transform="scale(0.015625)"/>
       </defs>
       <use xlink:href="#Cmr10-34" transform="translate(0 0.390625)"/>
       <use xlink:href="#Cmr10-30" transform="translate(50 0.390625)"/>
       <use xlink:href="#Cmr10-30" transform="translate(100 0.390625)"/>
      </g>
     </g>
    </g>
    <g id="ytick_4">
     <g id="line2d_37">
      <path d="M 28.2 94.885714 
L 325.2 94.885714 
" clip-path="url(#p71e58b2fd9)" style="fill: none; stroke-dasharray: 3.2,0.8,0.5,0.8; stroke-dashoffset: 0; stroke: #000000; stroke-opacity: 0.5; stroke-width: 0.5"/>
     </g>
     <g id="line2d_38">
      <g>
       <use xlink:href="#m00209fa1db" x="28.2" y="94.885714" style="stroke: #000000; stroke-width: 0.5"/>
      </g>
     </g>
     <g id="line2d_39">
      <g>
       <use xlink:href="#m3e7662621b" x="325.2" y="94.885714" style="stroke: #000000; stroke-width: 0.5"/>
      </g>
     </g>
     <g id="text_13">
      <!-- $\mathdefault{600}$ -->
      <g transform="translate(12.2 98.355246) scale(0.1 -0.1)">
       <defs>
        <path id="Cmr10-36" d="M 1600 -141 
Q 1203 -141 937 70 
Q 672 281 526 617 
Q 381 953 325 1322 
Q 269 1691 269 2069 
Q 269 2575 466 3084 
Q 663 3594 1045 3928 
Q 1428 4263 1953 4263 
Q 2172 4263 2361 4180 
Q 2550 4097 2658 3936 
Q 2766 3775 2766 3547 
Q 2766 3416 2677 3327 
Q 2588 3238 2456 3238 
Q 2331 3238 2240 3328 
Q 2150 3419 2150 3547 
Q 2150 3672 2240 3762 
Q 2331 3853 2456 3853 
L 2491 3853 
Q 2409 3969 2261 4023 
Q 2113 4078 1953 4078 
Q 1759 4078 1595 3993 
Q 1431 3909 1300 3765 
Q 1169 3622 1081 3448 
Q 994 3275 945 3053 
Q 897 2831 884 2637 
Q 872 2444 872 2150 
Q 984 2413 1190 2580 
Q 1397 2747 1656 2747 
Q 1941 2747 2175 2631 
Q 2409 2516 2578 2311 
Q 2747 2106 2836 1843 
Q 2925 1581 2925 1313 
Q 2925 938 2758 598 
Q 2591 259 2287 59 
Q 1984 -141 1600 -141 
z
M 1600 63 
Q 1847 63 1997 175 
Q 2147 288 2217 473 
Q 2288 659 2305 848 
Q 2322 1038 2322 1313 
Q 2322 1675 2287 1931 
Q 2253 2188 2100 2383 
Q 1947 2578 1631 2578 
Q 1372 2578 1205 2403 
Q 1038 2228 961 1961 
Q 884 1694 884 1447 
Q 884 1363 891 1319 
Q 891 1309 889 1303 
Q 888 1297 884 1288 
Q 884 1013 940 731 
Q 997 450 1156 256 
Q 1316 63 1600 63 
z
" transform="scale(0.015625)"/>
       </defs>
       <use xlink:href="#Cmr10-36" transform="translate(0 0.390625)"/>
       <use xlink:href="#Cmr10-30" transform="translate(50 0.390625)"/>
       <use xlink:href="#Cmr10-30" transform="translate(100 0.390625)"/>
      </g>
     </g>
    </g>
    <g id="ytick_5">
     <g id="line2d_40">
      <path d="M 28.2 68.314286 
L 325.2 68.314286 
" clip-path="url(#p71e58b2fd9)" style="fill: none; stroke-dasharray: 3.2,0.8,0.5,0.8; stroke-dashoffset: 0; stroke: #000000; stroke-opacity: 0.5; stroke-width: 0.5"/>
     </g>
     <g id="line2d_41">
      <g>
       <use xlink:href="#m00209fa1db" x="28.2" y="68.314286" style="stroke: #000000; stroke-width: 0.5"/>
      </g>
     </g>
     <g id="line2d_42">
      <g>
       <use xlink:href="#m3e7662621b" x="325.2" y="68.314286" style="stroke: #000000; stroke-width: 0.5"/>
      </g>
     </g>
     <g id="text_14">
      <!-- $\mathdefault{800}$ -->
      <g transform="translate(12.2 71.783817) scale(0.1 -0.1)">
       <defs>
        <path id="Cmr10-38" d="M 269 972 
Q 269 1356 522 1651 
Q 775 1947 1172 2144 
L 934 2297 
Q 716 2441 578 2680 
Q 441 2919 441 3181 
Q 441 3488 602 3734 
Q 763 3981 1030 4122 
Q 1297 4263 1600 4263 
Q 1884 4263 2148 4147 
Q 2413 4031 2583 3815 
Q 2753 3600 2753 3303 
Q 2753 3088 2651 2903 
Q 2550 2719 2373 2572 
Q 2197 2425 1997 2322 
L 2363 2088 
Q 2616 1922 2770 1653 
Q 2925 1384 2925 1088 
Q 2925 741 2739 456 
Q 2553 172 2247 15 
Q 1941 -141 1600 -141 
Q 1269 -141 961 -6 
Q 653 128 461 383 
Q 269 638 269 972 
z
M 616 972 
Q 616 719 755 509 
Q 894 300 1122 181 
Q 1350 63 1600 63 
Q 1972 63 2275 280 
Q 2578 497 2578 856 
Q 2578 978 2529 1098 
Q 2481 1219 2395 1317 
Q 2309 1416 2203 1478 
L 1344 2034 
Q 1144 1928 976 1765 
Q 809 1603 712 1400 
Q 616 1197 616 972 
z
M 1056 2925 
L 1831 2425 
Q 2100 2581 2272 2803 
Q 2444 3025 2444 3303 
Q 2444 3519 2323 3698 
Q 2203 3878 2009 3978 
Q 1816 4078 1594 4078 
Q 1400 4078 1203 4003 
Q 1006 3928 878 3779 
Q 750 3631 750 3431 
Q 750 3131 1056 2925 
z
" transform="scale(0.015625)"/>
       </defs>
       <use xlink:href="#Cmr10-38" transform="translate(0 0.390625)"/>
       <use xlink:href="#Cmr10-30" transform="translate(50 0.390625)"/>
       <use xlink:href="#Cmr10-30" transform="translate(100 0.390625)"/>
      </g>
     </g>
    </g>
    <g id="ytick_6">
     <g id="line2d_43">
      <path d="M 28.2 41.742857 
L 325.2 41.742857 
" clip-path="url(#p71e58b2fd9)" style="fill: none; stroke-dasharray: 3.2,0.8,0.5,0.8; stroke-dashoffset: 0; stroke: #000000; stroke-opacity: 0.5; stroke-width: 0.5"/>
     </g>
     <g id="line2d_44">
      <g>
       <use xlink:href="#m00209fa1db" x="28.2" y="41.742857" style="stroke: #000000; stroke-width: 0.5"/>
      </g>
     </g>
     <g id="line2d_45">
      <g>
       <use xlink:href="#m3e7662621b" x="325.2" y="41.742857" style="stroke: #000000; stroke-width: 0.5"/>
      </g>
     </g>
     <g id="text_15">
      <!-- $\mathdefault{1000}$ -->
      <g transform="translate(7.2 45.212388) scale(0.1 -0.1)">
       <use xlink:href="#Cmr10-31" transform="translate(0 0.390625)"/>
       <use xlink:href="#Cmr10-30" transform="translate(50 0.390625)"/>
       <use xlink:href="#Cmr10-30" transform="translate(100 0.390625)"/>
       <use xlink:href="#Cmr10-30" transform="translate(150 0.390625)"/>
      </g>
     </g>
    </g>
    <g id="ytick_7">
     <g id="line2d_46">
      <path d="M 28.2 15.171429 
L 325.2 15.171429 
" clip-path="url(#p71e58b2fd9)" style="fill: none; stroke-dasharray: 3.2,0.8,0.5,0.8; stroke-dashoffset: 0; stroke: #000000; stroke-opacity: 0.5; stroke-width: 0.5"/>
     </g>
     <g id="line2d_47">
      <g>
       <use xlink:href="#m00209fa1db" x="28.2" y="15.171429" style="stroke: #000000; stroke-width: 0.5"/>
      </g>
     </g>
     <g id="line2d_48">
      <g>
       <use xlink:href="#m3e7662621b" x="325.2" y="15.171429" style="stroke: #000000; stroke-width: 0.5"/>
      </g>
     </g>
     <g id="text_16">
      <!-- $\mathdefault{1200}$ -->
      <g transform="translate(7.2 18.64096) scale(0.1 -0.1)">
       <use xlink:href="#Cmr10-31" transform="translate(0 0.390625)"/>
       <use xlink:href="#Cmr10-32" transform="translate(50 0.390625)"/>
       <use xlink:href="#Cmr10-30" transform="translate(100 0.390625)"/>
       <use xlink:href="#Cmr10-30" transform="translate(150 0.390625)"/>
      </g>
     </g>
    </g>
   </g>
   <g id="patch_3">
    <path d="M 41.7 174.6 
L 44.110714 174.6 
L 44.110714 174.467143 
L 41.7 174.467143 
z
" clip-path="url(#p71e58b2fd9)" style="fill: #5790fc; fill-opacity: 0.5"/>
   </g>
   <g id="patch_4">
    <path d="M 44.110714 174.6 
L 46.521429 174.6 
L 46.521429 174.6 
L 44.110714 174.6 
z
" clip-path="url(#p71e58b2fd9)" style="fill: #5790fc; fill-opacity: 0.5"/>
   </g>
   <g id="patch_5">
    <path d="M 46.521429 174.6 
L 48.932143 174.6 
L 48.932143 174.6 
L 46.521429 174.6 
z
" clip-path="url(#p71e58b2fd9)" style="fill: #5790fc; fill-opacity: 0.5"/>
   </g>
   <g id="patch_6">
    <path d="M 48.932143 174.6 
L 51.342857 174.6 
L 51.342857 174.334286 
L 48.932143 174.334286 
z
" clip-path="url(#p71e58b2fd9)" style="fill: #5790fc; fill-opacity: 0.5"/>
   </g>
   <g id="patch_7">
    <path d="M 51.342857 174.6 
L 53.753571 174.6 
L 53.753571 174.334286 
L 51.342857 174.334286 
z
" clip-path="url(#p71e58b2fd9)" style="fill: #5790fc; fill-opacity: 0.5"/>
   </g>
   <g id="patch_8">
    <path d="M 53.753571 174.6 
L 56.164286 174.6 
L 56.164286 174.467143 
L 53.753571 174.467143 
z
" clip-path="url(#p71e58b2fd9)" style="fill: #5790fc; fill-opacity: 0.5"/>
   </g>
   <g id="patch_9">
    <path d="M 56.164286 174.6 
L 58.575 174.6 
L 58.575 174.201429 
L 56.164286 174.201429 
z
" clip-path="url(#p71e58b2fd9)" style="fill: #5790fc; fill-opacity: 0.5"/>
   </g>
   <g id="patch_10">
    <path d="M 58.575 174.6 
L 60.985714 174.6 
L 60.985714 174.201429 
L 58.575 174.201429 
z
" clip-path="url(#p71e58b2fd9)" style="fill: #5790fc; fill-opacity: 0.5"/>
   </g>
   <g id="patch_11">
    <path d="M 60.985714 174.6 
L 63.396429 174.6 
L 63.396429 173.935714 
L 60.985714 173.935714 
z
" clip-path="url(#p71e58b2fd9)" style="fill: #5790fc; fill-opacity: 0.5"/>
   </g>
   <g id="patch_12">
    <path d="M 63.396429 174.6 
L 65.807143 174.6 
L 65.807143 173.67 
L 63.396429 173.67 
z
" clip-path="url(#p71e58b2fd9)" style="fill: #5790fc; fill-opacity: 0.5"/>
   </g>
   <g id="patch_13">
    <path d="M 65.807143 174.6 
L 68.217857 174.6 
L 68.217857 173.67 
L 65.807143 173.67 
z
" clip-path="url(#p71e58b2fd9)" style="fill: #5790fc; fill-opacity: 0.5"/>
   </g>
   <g id="patch_14">
    <path d="M 68.217857 174.6 
L 70.628571 174.6 
L 70.628571 172.208571 
L 68.217857 172.208571 
z
" clip-path="url(#p71e58b2fd9)" style="fill: #5790fc; fill-opacity: 0.5"/>
   </g>
   <g id="patch_15">
    <path d="M 70.628571 174.6 
L 73.039286 174.6 
L 73.039286 171.677143 
L 70.628571 171.677143 
z
" clip-path="url(#p71e58b2fd9)" style="fill: #5790fc; fill-opacity: 0.5"/>
   </g>
   <g id="patch_16">
    <path d="M 73.039286 174.6 
L 75.45 174.6 
L 75.45 171.012857 
L 73.039286 171.012857 
z
" clip-path="url(#p71e58b2fd9)" style="fill: #5790fc; fill-opacity: 0.5"/>
   </g>
   <g id="patch_17">
    <path d="M 75.45 174.6 
L 77.860714 174.6 
L 77.860714 170.481429 
L 75.45 170.481429 
z
" clip-path="url(#p71e58b2fd9)" style="fill: #5790fc; fill-opacity: 0.5"/>
   </g>
   <g id="patch_18">
    <path d="M 77.860714 174.6 
L 80.271429 174.6 
L 80.271429 169.285714 
L 77.860714 169.285714 
z
" clip-path="url(#p71e58b2fd9)" style="fill: #5790fc; fill-opacity: 0.5"/>
   </g>
   <g id="patch_19">
    <path d="M 80.271429 174.6 
L 82.682143 174.6 
L 82.682143 168.222857 
L 80.271429 168.222857 
z
" clip-path="url(#p71e58b2fd9)" style="fill: #5790fc; fill-opacity: 0.5"/>
   </g>
   <g id="patch_20">
    <path d="M 82.682143 174.6 
L 85.092857 174.6 
L 85.092857 166.894286 
L 82.682143 166.894286 
z
" clip-path="url(#p71e58b2fd9)" style="fill: #5790fc; fill-opacity: 0.5"/>
   </g>
   <g id="patch_21">
    <path d="M 85.092857 174.6 
L 87.503571 174.6 
L 87.503571 166.761429 
L 85.092857 166.761429 
z
" clip-path="url(#p71e58b2fd9)" style="fill: #5790fc; fill-opacity: 0.5"/>
   </g>
   <g id="patch_22">
    <path d="M 87.503571 174.6 
L 89.914286 174.6 
L 89.914286 160.782857 
L 87.503571 160.782857 
z
" clip-path="url(#p71e58b2fd9)" style="fill: #5790fc; fill-opacity: 0.5"/>
   </g>
   <g id="patch_23">
    <path d="M 89.914286 174.6 
L 92.325 174.6 
L 92.325 161.845714 
L 89.914286 161.845714 
z
" clip-path="url(#p71e58b2fd9)" style="fill: #5790fc; fill-opacity: 0.5"/>
   </g>
   <g id="patch_24">
    <path d="M 92.325 174.6 
L 94.735714 174.6 
L 94.735714 154.538571 
L 92.325 154.538571 
z
" clip-path="url(#p71e58b2fd9)" style="fill: #5790fc; fill-opacity: 0.5"/>
   </g>
   <g id="patch_25">
    <path d="M 94.735714 174.6 
L 97.146429 174.6 
L 97.146429 151.35 
L 94.735714 151.35 
z
" clip-path="url(#p71e58b2fd9)" style="fill: #5790fc; fill-opacity: 0.5"/>
   </g>
   <g id="patch_26">
    <path d="M 97.146429 174.6 
L 99.557143 174.6 
L 99.557143 144.441429 
L 97.146429 144.441429 
z
" clip-path="url(#p71e58b2fd9)" style="fill: #5790fc; fill-opacity: 0.5"/>
   </g>
   <g id="patch_27">
    <path d="M 99.557143 174.6 
L 101.967857 174.6 
L 101.967857 140.854286 
L 99.557143 140.854286 
z
" clip-path="url(#p71e58b2fd9)" style="fill: #5790fc; fill-opacity: 0.5"/>
   </g>
   <g id="patch_28">
    <path d="M 101.967857 174.6 
L 104.378571 174.6 
L 104.378571 134.078571 
L 101.967857 134.078571 
z
" clip-path="url(#p71e58b2fd9)" style="fill: #5790fc; fill-opacity: 0.5"/>
   </g>
   <g id="patch_29">
    <path d="M 104.378571 174.6 
L 106.789286 174.6 
L 106.789286 126.107143 
L 104.378571 126.107143 
z
" clip-path="url(#p71e58b2fd9)" style="fill: #5790fc; fill-opacity: 0.5"/>
   </g>
   <g id="patch_30">
    <path d="M 106.789286 174.6 
L 109.2 174.6 
L 109.2 122.52 
L 106.789286 122.52 
z
" clip-path="url(#p71e58b2fd9)" style="fill: #5790fc; fill-opacity: 0.5"/>
   </g>
   <g id="patch_31">
    <path d="M 109.2 174.6 
L 111.610714 174.6 
L 111.610714 114.548571 
L 109.2 114.548571 
z
" clip-path="url(#p71e58b2fd9)" style="fill: #5790fc; fill-opacity: 0.5"/>
   </g>
   <g id="patch_32">
    <path d="M 111.610714 174.6 
L 114.021429 174.6 
L 114.021429 102.06 
L 111.610714 102.06 
z
" clip-path="url(#p71e58b2fd9)" style="fill: #5790fc; fill-opacity: 0.5"/>
   </g>
   <g id="patch_33">
    <path d="M 114.021429 174.6 
L 116.432143 174.6 
L 116.432143 95.815714 
L 114.021429 95.815714 
z
" clip-path="url(#p71e58b2fd9)" style="fill: #5790fc; fill-opacity: 0.5"/>
   </g>
   <g id="patch_34">
    <path d="M 116.432143 174.6 
L 118.842857 174.6 
L 118.842857 86.781429 
L 116.432143 86.781429 
z
" clip-path="url(#p71e58b2fd9)" style="fill: #5790fc; fill-opacity: 0.5"/>
   </g>
   <g id="patch_35">
    <path d="M 118.842857 174.6 
L 121.253571 174.6 
L 121.253571 78.942857 
L 118.842857 78.942857 
z
" clip-path="url(#p71e58b2fd9)" style="fill: #5790fc; fill-opacity: 0.5"/>
   </g>
   <g id="patch_36">
    <path d="M 121.253571 174.6 
L 123.664286 174.6 
L 123.664286 72.831429 
L 121.253571 72.831429 
z
" clip-path="url(#p71e58b2fd9)" style="fill: #5790fc; fill-opacity: 0.5"/>
   </g>
   <g id="patch_37">
    <path d="M 123.664286 174.6 
L 126.075 174.6 
L 126.075 63.265714 
L 123.664286 63.265714 
z
" clip-path="url(#p71e58b2fd9)" style="fill: #5790fc; fill-opacity: 0.5"/>
   </g>
   <g id="patch_38">
    <path d="M 126.075 174.6 
L 128.485714 174.6 
L 128.485714 50.245714 
L 126.075 50.245714 
z
" clip-path="url(#p71e58b2fd9)" style="fill: #5790fc; fill-opacity: 0.5"/>
   </g>
   <g id="patch_39">
    <path d="M 128.485714 174.6 
L 130.896429 174.6 
L 130.896429 48.252857 
L 128.485714 48.252857 
z
" clip-path="url(#p71e58b2fd9)" style="fill: #5790fc; fill-opacity: 0.5"/>
   </g>
   <g id="patch_40">
    <path d="M 130.896429 174.6 
L 133.307143 174.6 
L 133.307143 48.651429 
L 130.896429 48.651429 
z
" clip-path="url(#p71e58b2fd9)" style="fill: #5790fc; fill-opacity: 0.5"/>
   </g>
   <g id="patch_41">
    <path d="M 133.307143 174.6 
L 135.717857 174.6 
L 135.717857 45.197143 
L 133.307143 45.197143 
z
" clip-path="url(#p71e58b2fd9)" style="fill: #5790fc; fill-opacity: 0.5"/>
   </g>
   <g id="patch_42">
    <path d="M 135.717857 174.6 
L 138.128571 174.6 
L 138.128571 34.834286 
L 135.717857 34.834286 
z
" clip-path="url(#p71e58b2fd9)" style="fill: #5790fc; fill-opacity: 0.5"/>
   </g>
   <g id="patch_43">
    <path d="M 138.128571 174.6 
L 140.539286 174.6 
L 140.539286 31.645714 
L 138.128571 31.645714 
z
" clip-path="url(#p71e58b2fd9)" style="fill: #5790fc; fill-opacity: 0.5"/>
   </g>
   <g id="patch_44">
    <path d="M 140.539286 174.6 
L 142.95 174.6 
L 142.95 36.428571 
L 140.539286 36.428571 
z
" clip-path="url(#p71e58b2fd9)" style="fill: #5790fc; fill-opacity: 0.5"/>
   </g>
   <g id="patch_45">
    <path d="M 142.95 174.6 
L 145.360714 174.6 
L 145.360714 25.8 
L 142.95 25.8 
z
" clip-path="url(#p71e58b2fd9)" style="fill: #5790fc; fill-opacity: 0.5"/>
   </g>
   <g id="patch_46">
    <path d="M 145.360714 174.6 
L 147.771429 174.6 
L 147.771429 27.394286 
L 145.360714 27.394286 
z
" clip-path="url(#p71e58b2fd9)" style="fill: #5790fc; fill-opacity: 0.5"/>
   </g>
   <g id="patch_47">
    <path d="M 147.771429 174.6 
L 150.182143 174.6 
L 150.182143 33.638571 
L 147.771429 33.638571 
z
" clip-path="url(#p71e58b2fd9)" style="fill: #5790fc; fill-opacity: 0.5"/>
   </g>
   <g id="patch_48">
    <path d="M 150.182143 174.6 
L 152.592857 174.6 
L 152.592857 39.617143 
L 150.182143 39.617143 
z
" clip-path="url(#p71e58b2fd9)" style="fill: #5790fc; fill-opacity: 0.5"/>
   </g>
   <g id="patch_49">
    <path d="M 152.592857 174.6 
L 155.003571 174.6 
L 155.003571 47.721429 
L 152.592857 47.721429 
z
" clip-path="url(#p71e58b2fd9)" style="fill: #5790fc; fill-opacity: 0.5"/>
   </g>
   <g id="patch_50">
    <path d="M 155.003571 174.6 
L 157.414286 174.6 
L 157.414286 50.245714 
L 155.003571 50.245714 
z
" clip-path="url(#p71e58b2fd9)" style="fill: #5790fc; fill-opacity: 0.5"/>
   </g>
   <g id="patch_51">
    <path d="M 157.414286 174.6 
L 159.825 174.6 
L 159.825 54.098571 
L 157.414286 54.098571 
z
" clip-path="url(#p71e58b2fd9)" style="fill: #5790fc; fill-opacity: 0.5"/>
   </g>
   <g id="patch_52">
    <path d="M 159.825 174.6 
L 162.235714 174.6 
L 162.235714 60.608571 
L 159.825 60.608571 
z
" clip-path="url(#p71e58b2fd9)" style="fill: #5790fc; fill-opacity: 0.5"/>
   </g>
   <g id="patch_53">
    <path d="M 162.235714 174.6 
L 164.646429 174.6 
L 164.646429 61.272857 
L 162.235714 61.272857 
z
" clip-path="url(#p71e58b2fd9)" style="fill: #5790fc; fill-opacity: 0.5"/>
   </g>
   <g id="patch_54">
    <path d="M 164.646429 174.6 
L 167.057143 174.6 
L 167.057143 78.942857 
L 164.646429 78.942857 
z
" clip-path="url(#p71e58b2fd9)" style="fill: #5790fc; fill-opacity: 0.5"/>
   </g>
   <g id="patch_55">
    <path d="M 167.057143 174.6 
L 169.467857 174.6 
L 169.467857 72.565714 
L 167.057143 72.565714 
z
" clip-path="url(#p71e58b2fd9)" style="fill: #5790fc; fill-opacity: 0.5"/>
   </g>
   <g id="patch_56">
    <path d="M 169.467857 174.6 
L 171.878571 174.6 
L 171.878571 90.102857 
L 169.467857 90.102857 
z
" clip-path="url(#p71e58b2fd9)" style="fill: #5790fc; fill-opacity: 0.5"/>
   </g>
   <g id="patch_57">
    <path d="M 171.878571 174.6 
L 174.289286 174.6 
L 174.289286 92.095714 
L 171.878571 92.095714 
z
" clip-path="url(#p71e58b2fd9)" style="fill: #5790fc; fill-opacity: 0.5"/>
   </g>
   <g id="patch_58">
    <path d="M 174.289286 174.6 
L 176.7 174.6 
L 176.7 104.052857 
L 174.289286 104.052857 
z
" clip-path="url(#p71e58b2fd9)" style="fill: #5790fc; fill-opacity: 0.5"/>
   </g>
   <g id="patch_59">
    <path d="M 176.7 174.6 
L 179.110714 174.6 
L 179.110714 105.381429 
L 176.7 105.381429 
z
" clip-path="url(#p71e58b2fd9)" style="fill: #5790fc; fill-opacity: 0.5"/>
   </g>
   <g id="patch_60">
    <path d="M 179.110714 174.6 
L 181.521429 174.6 
L 181.521429 113.618571 
L 179.110714 113.618571 
z
" clip-path="url(#p71e58b2fd9)" style="fill: #5790fc; fill-opacity: 0.5"/>
   </g>
   <g id="patch_61">
    <path d="M 181.521429 174.6 
L 183.932143 174.6 
L 183.932143 111.758571 
L 181.521429 111.758571 
z
" clip-path="url(#p71e58b2fd9)" style="fill: #5790fc; fill-opacity: 0.5"/>
   </g>
   <g id="patch_62">
    <path d="M 183.932143 174.6 
L 186.342857 174.6 
L 186.342857 119.862857 
L 183.932143 119.862857 
z
" clip-path="url(#p71e58b2fd9)" style="fill: #5790fc; fill-opacity: 0.5"/>
   </g>
   <g id="patch_63">
    <path d="M 186.342857 174.6 
L 188.753571 174.6 
L 188.753571 125.442857 
L 186.342857 125.442857 
z
" clip-path="url(#p71e58b2fd9)" style="fill: #5790fc; fill-opacity: 0.5"/>
   </g>
   <g id="patch_64">
    <path d="M 188.753571 174.6 
L 191.164286 174.6 
L 191.164286 135.805714 
L 188.753571 135.805714 
z
" clip-path="url(#p71e58b2fd9)" style="fill: #5790fc; fill-opacity: 0.5"/>
   </g>
   <g id="patch_65">
    <path d="M 191.164286 174.6 
L 193.575 174.6 
L 193.575 140.721429 
L 191.164286 140.721429 
z
" clip-path="url(#p71e58b2fd9)" style="fill: #5790fc; fill-opacity: 0.5"/>
   </g>
   <g id="patch_66">
    <path d="M 193.575 174.6 
L 195.985714 174.6 
L 195.985714 140.057143 
L 193.575 140.057143 
z
" clip-path="url(#p71e58b2fd9)" style="fill: #5790fc; fill-opacity: 0.5"/>
   </g>
   <g id="patch_67">
    <path d="M 195.985714 174.6 
L 198.396429 174.6 
L 198.396429 142.714286 
L 195.985714 142.714286 
z
" clip-path="url(#p71e58b2fd9)" style="fill: #5790fc; fill-opacity: 0.5"/>
   </g>
   <g id="patch_68">
    <path d="M 198.396429 174.6 
L 200.807143 174.6 
L 200.807143 141.651429 
L 198.396429 141.651429 
z
" clip-path="url(#p71e58b2fd9)" style="fill: #5790fc; fill-opacity: 0.5"/>
   </g>
   <g id="patch_69">
    <path d="M 200.807143 174.6 
L 203.217857 174.6 
L 203.217857 148.028571 
L 200.807143 148.028571 
z
" clip-path="url(#p71e58b2fd9)" style="fill: #5790fc; fill-opacity: 0.5"/>
   </g>
   <g id="patch_70">
    <path d="M 203.217857 174.6 
L 205.628571 174.6 
L 205.628571 150.951429 
L 203.217857 150.951429 
z
" clip-path="url(#p71e58b2fd9)" style="fill: #5790fc; fill-opacity: 0.5"/>
   </g>
   <g id="patch_71">
    <path d="M 205.628571 174.6 
L 208.039286 174.6 
L 208.039286 157.727143 
L 205.628571 157.727143 
z
" clip-path="url(#p71e58b2fd9)" style="fill: #5790fc; fill-opacity: 0.5"/>
   </g>
   <g id="patch_72">
    <path d="M 208.039286 174.6 
L 210.45 174.6 
L 210.45 158.79 
L 208.039286 158.79 
z
" clip-path="url(#p71e58b2fd9)" style="fill: #5790fc; fill-opacity: 0.5"/>
   </g>
   <g id="patch_73">
    <path d="M 210.45 174.6 
L 212.860714 174.6 
L 212.860714 158.657143 
L 210.45 158.657143 
z
" clip-path="url(#p71e58b2fd9)" style="fill: #5790fc; fill-opacity: 0.5"/>
   </g>
   <g id="patch_74">
    <path d="M 212.860714 174.6 
L 215.271429 174.6 
L 215.271429 161.712857 
L 212.860714 161.712857 
z
" clip-path="url(#p71e58b2fd9)" style="fill: #5790fc; fill-opacity: 0.5"/>
   </g>
   <g id="patch_75">
    <path d="M 215.271429 174.6 
L 217.682143 174.6 
L 217.682143 164.237143 
L 215.271429 164.237143 
z
" clip-path="url(#p71e58b2fd9)" style="fill: #5790fc; fill-opacity: 0.5"/>
   </g>
   <g id="patch_76">
    <path d="M 217.682143 174.6 
L 220.092857 174.6 
L 220.092857 165.964286 
L 217.682143 165.964286 
z
" clip-path="url(#p71e58b2fd9)" style="fill: #5790fc; fill-opacity: 0.5"/>
   </g>
   <g id="patch_77">
    <path d="M 220.092857 174.6 
L 222.503571 174.6 
L 222.503571 165.964286 
L 220.092857 165.964286 
z
" clip-path="url(#p71e58b2fd9)" style="fill: #5790fc; fill-opacity: 0.5"/>
   </g>
   <g id="patch_78">
    <path d="M 222.503571 174.6 
L 224.914286 174.6 
L 224.914286 167.425714 
L 222.503571 167.425714 
z
" clip-path="url(#p71e58b2fd9)" style="fill: #5790fc; fill-opacity: 0.5"/>
   </g>
   <g id="patch_79">
    <path d="M 224.914286 174.6 
L 227.325 174.6 
L 227.325 167.558571 
L 224.914286 167.558571 
z
" clip-path="url(#p71e58b2fd9)" style="fill: #5790fc; fill-opacity: 0.5"/>
   </g>
   <g id="patch_80">
    <path d="M 227.325 174.6 
L 229.735714 174.6 
L 229.735714 167.558571 
L 227.325 167.558571 
z
" clip-path="url(#p71e58b2fd9)" style="fill: #5790fc; fill-opacity: 0.5"/>
   </g>
   <g id="patch_81">
    <path d="M 229.735714 174.6 
L 232.146429 174.6 
L 232.146429 168.754286 
L 229.735714 168.754286 
z
" clip-path="url(#p71e58b2fd9)" style="fill: #5790fc; fill-opacity: 0.5"/>
   </g>
   <g id="patch_82">
    <path d="M 232.146429 174.6 
L 234.557143 174.6 
L 234.557143 170.348571 
L 232.146429 170.348571 
z
" clip-path="url(#p71e58b2fd9)" style="fill: #5790fc; fill-opacity: 0.5"/>
   </g>
   <g id="patch_83">
    <path d="M 234.557143 174.6 
L 236.967857 174.6 
L 236.967857 171.81 
L 234.557143 171.81 
z
" clip-path="url(#p71e58b2fd9)" style="fill: #5790fc; fill-opacity: 0.5"/>
   </g>
   <g id="patch_84">
    <path d="M 236.967857 174.6 
L 239.378571 174.6 
L 239.378571 171.544286 
L 236.967857 171.544286 
z
" clip-path="url(#p71e58b2fd9)" style="fill: #5790fc; fill-opacity: 0.5"/>
   </g>
   <g id="patch_85">
    <path d="M 239.378571 174.6 
L 241.789286 174.6 
L 241.789286 171.411429 
L 239.378571 171.411429 
z
" clip-path="url(#p71e58b2fd9)" style="fill: #5790fc; fill-opacity: 0.5"/>
   </g>
   <g id="patch_86">
    <path d="M 241.789286 174.6 
L 244.2 174.6 
L 244.2 171.677143 
L 241.789286 171.677143 
z
" clip-path="url(#p71e58b2fd9)" style="fill: #5790fc; fill-opacity: 0.5"/>
   </g>
   <g id="patch_87">
    <path d="M 244.2 174.6 
L 246.610714 174.6 
L 246.610714 172.341429 
L 244.2 172.341429 
z
" clip-path="url(#p71e58b2fd9)" style="fill: #5790fc; fill-opacity: 0.5"/>
   </g>
   <g id="patch_88">
    <path d="M 246.610714 174.6 
L 249.021429 174.6 
L 249.021429 173.537143 
L 246.610714 173.537143 
z
" clip-path="url(#p71e58b2fd9)" style="fill: #5790fc; fill-opacity: 0.5"/>
   </g>
   <g id="patch_89">
    <path d="M 249.021429 174.6 
L 251.432143 174.6 
L 251.432143 172.607143 
L 249.021429 172.607143 
z
" clip-path="url(#p71e58b2fd9)" style="fill: #5790fc; fill-opacity: 0.5"/>
   </g>
   <g id="patch_90">
    <path d="M 251.432143 174.6 
L 253.842857 174.6 
L 253.842857 174.068571 
L 251.432143 174.068571 
z
" clip-path="url(#p71e58b2fd9)" style="fill: #5790fc; fill-opacity: 0.5"/>
   </g>
   <g id="patch_91">
    <path d="M 253.842857 174.6 
L 256.253571 174.6 
L 256.253571 173.935714 
L 253.842857 173.935714 
z
" clip-path="url(#p71e58b2fd9)" style="fill: #5790fc; fill-opacity: 0.5"/>
   </g>
   <g id="patch_92">
    <path d="M 256.253571 174.6 
L 258.664286 174.6 
L 258.664286 173.404286 
L 256.253571 173.404286 
z
" clip-path="url(#p71e58b2fd9)" style="fill: #5790fc; fill-opacity: 0.5"/>
   </g>
   <g id="patch_93">
    <path d="M 258.664286 174.6 
L 261.075 174.6 
L 261.075 174.201429 
L 258.664286 174.201429 
z
" clip-path="url(#p71e58b2fd9)" style="fill: #5790fc; fill-opacity: 0.5"/>
   </g>
   <g id="patch_94">
    <path d="M 261.075 174.6 
L 263.485714 174.6 
L 263.485714 173.935714 
L 261.075 173.935714 
z
" clip-path="url(#p71e58b2fd9)" style="fill: #5790fc; fill-opacity: 0.5"/>
   </g>
   <g id="patch_95">
    <path d="M 263.485714 174.6 
L 265.896429 174.6 
L 265.896429 174.068571 
L 263.485714 174.068571 
z
" clip-path="url(#p71e58b2fd9)" style="fill: #5790fc; fill-opacity: 0.5"/>
   </g>
   <g id="patch_96">
    <path d="M 265.896429 174.6 
L 268.307143 174.6 
L 268.307143 173.935714 
L 265.896429 173.935714 
z
" clip-path="url(#p71e58b2fd9)" style="fill: #5790fc; fill-opacity: 0.5"/>
   </g>
   <g id="patch_97">
    <path d="M 268.307143 174.6 
L 270.717857 174.6 
L 270.717857 174.334286 
L 268.307143 174.334286 
z
" clip-path="url(#p71e58b2fd9)" style="fill: #5790fc; fill-opacity: 0.5"/>
   </g>
   <g id="patch_98">
    <path d="M 270.717857 174.6 
L 273.128571 174.6 
L 273.128571 173.935714 
L 270.717857 173.935714 
z
" clip-path="url(#p71e58b2fd9)" style="fill: #5790fc; fill-opacity: 0.5"/>
   </g>
   <g id="patch_99">
    <path d="M 273.128571 174.6 
L 275.539286 174.6 
L 275.539286 174.068571 
L 273.128571 174.068571 
z
" clip-path="url(#p71e58b2fd9)" style="fill: #5790fc; fill-opacity: 0.5"/>
   </g>
   <g id="patch_100">
    <path d="M 275.539286 174.6 
L 277.95 174.6 
L 277.95 174.467143 
L 275.539286 174.467143 
z
" clip-path="url(#p71e58b2fd9)" style="fill: #5790fc; fill-opacity: 0.5"/>
   </g>
   <g id="patch_101">
    <path d="M 277.95 174.6 
L 280.360714 174.6 
L 280.360714 174.6 
L 277.95 174.6 
z
" clip-path="url(#p71e58b2fd9)" style="fill: #5790fc; fill-opacity: 0.5"/>
   </g>
   <g id="patch_102">
    <path d="M 280.360714 174.6 
L 282.771429 174.6 
L 282.771429 174.467143 
L 280.360714 174.467143 
z
" clip-path="url(#p71e58b2fd9)" style="fill: #5790fc; fill-opacity: 0.5"/>
   </g>
   <g id="patch_103">
    <path d="M 282.771429 174.6 
L 285.182143 174.6 
L 285.182143 174.6 
L 282.771429 174.6 
z
" clip-path="url(#p71e58b2fd9)" style="fill: #5790fc; fill-opacity: 0.5"/>
   </g>
   <g id="patch_104">
    <path d="M 285.182143 174.6 
L 287.592857 174.6 
L 287.592857 174.6 
L 285.182143 174.6 
z
" clip-path="url(#p71e58b2fd9)" style="fill: #5790fc; fill-opacity: 0.5"/>
   </g>
   <g id="patch_105">
    <path d="M 287.592857 174.6 
L 290.003571 174.6 
L 290.003571 174.6 
L 287.592857 174.6 
z
" clip-path="url(#p71e58b2fd9)" style="fill: #5790fc; fill-opacity: 0.5"/>
   </g>
   <g id="patch_106">
    <path d="M 290.003571 174.6 
L 292.414286 174.6 
L 292.414286 174.467143 
L 290.003571 174.467143 
z
" clip-path="url(#p71e58b2fd9)" style="fill: #5790fc; fill-opacity: 0.5"/>
   </g>
   <g id="patch_107">
    <path d="M 292.414286 174.6 
L 294.825 174.6 
L 294.825 174.201429 
L 292.414286 174.201429 
z
" clip-path="url(#p71e58b2fd9)" style="fill: #5790fc; fill-opacity: 0.5"/>
   </g>
   <g id="patch_108">
    <path d="M 294.825 174.6 
L 297.235714 174.6 
L 297.235714 174.6 
L 294.825 174.6 
z
" clip-path="url(#p71e58b2fd9)" style="fill: #5790fc; fill-opacity: 0.5"/>
   </g>
   <g id="patch_109">
    <path d="M 297.235714 174.6 
L 299.646429 174.6 
L 299.646429 174.6 
L 297.235714 174.6 
z
" clip-path="url(#p71e58b2fd9)" style="fill: #5790fc; fill-opacity: 0.5"/>
   </g>
   <g id="patch_110">
    <path d="M 299.646429 174.6 
L 302.057143 174.6 
L 302.057143 174.6 
L 299.646429 174.6 
z
" clip-path="url(#p71e58b2fd9)" style="fill: #5790fc; fill-opacity: 0.5"/>
   </g>
   <g id="patch_111">
    <path d="M 302.057143 174.6 
L 304.467857 174.6 
L 304.467857 174.467143 
L 302.057143 174.467143 
z
" clip-path="url(#p71e58b2fd9)" style="fill: #5790fc; fill-opacity: 0.5"/>
   </g>
   <g id="patch_112">
    <path d="M 304.467857 174.6 
L 306.878571 174.6 
L 306.878571 174.6 
L 304.467857 174.6 
z
" clip-path="url(#p71e58b2fd9)" style="fill: #5790fc; fill-opacity: 0.5"/>
   </g>
   <g id="patch_113">
    <path d="M 306.878571 174.6 
L 309.289286 174.6 
L 309.289286 174.6 
L 306.878571 174.6 
z
" clip-path="url(#p71e58b2fd9)" style="fill: #5790fc; fill-opacity: 0.5"/>
   </g>
   <g id="patch_114">
    <path d="M 309.289286 174.6 
L 311.7 174.6 
L 311.7 174.467143 
L 309.289286 174.467143 
z
" clip-path="url(#p71e58b2fd9)" style="fill: #5790fc; fill-opacity: 0.5"/>
   </g>
   <g id="line2d_49">
    <path d="M 41.7 174.560914 
L 49.840704 174.441596 
L 60.694975 174.026535 
L 63.408543 173.754243 
L 66.122111 173.273644 
L 68.835678 172.553068 
L 76.976382 170.01713 
L 79.68995 168.926582 
L 82.403518 167.582005 
L 83.760302 166.750995 
L 85.117085 165.766205 
L 86.473869 164.601953 
L 87.830653 163.241239 
L 89.187437 161.663664 
L 90.544221 159.83926 
L 91.901005 157.739617 
L 93.257789 155.359019 
L 95.971357 149.902584 
L 100.041709 140.840868 
L 104.11206 131.181546 
L 106.825628 123.967294 
L 108.182412 119.917086 
L 110.89598 110.815092 
L 116.323116 91.689142 
L 125.820603 60.276552 
L 127.177387 56.509882 
L 128.534171 53.27419 
L 129.890955 50.511032 
L 133.961307 43.356818 
L 136.674874 38.646786 
L 138.031658 36.465563 
L 139.388442 34.535942 
L 140.745226 32.945196 
L 142.10201 31.781201 
L 143.458794 31.143757 
L 144.815578 31.134076 
L 146.172362 31.822025 
L 147.529146 33.208946 
L 148.88593 35.209628 
L 150.242714 37.666393 
L 157.026633 51.519977 
L 159.740201 57.313809 
L 162.453769 63.821201 
L 166.524121 74.561513 
L 169.237688 82.300809 
L 174.664824 98.395166 
L 176.021608 101.869575 
L 177.378392 104.968118 
L 180.09196 110.269454 
L 182.805528 115.41749 
L 184.162312 118.357149 
L 186.875879 125.065475 
L 189.589447 131.763638 
L 190.946231 134.600778 
L 192.303015 136.945811 
L 193.659799 138.811274 
L 195.016583 140.299368 
L 199.086935 144.15023 
L 200.443719 145.719173 
L 201.800503 147.533398 
L 207.227638 155.448063 
L 208.584422 157.040987 
L 209.941206 158.411671 
L 212.654774 160.720837 
L 215.368342 162.765232 
L 218.08191 164.526995 
L 220.795477 165.864609 
L 223.509045 166.855812 
L 231.649749 169.441267 
L 234.363317 170.437114 
L 237.076884 171.138302 
L 241.147236 171.743124 
L 246.574372 172.642954 
L 250.644724 173.256599 
L 254.715075 173.642374 
L 260.142211 173.898966 
L 284.564322 174.561104 
L 311.7 174.56223 
L 311.7 174.56223 
" clip-path="url(#p71e58b2fd9)" style="fill: none; stroke: #5790fc; stroke-linecap: square"/>
   </g>
   <g id="LineCollection_1">
    <path d="M 148.328195 174.6 
L 148.328195 15.171429 
" clip-path="url(#p71e58b2fd9)" style="fill: none; stroke: #ff0000"/>
   </g>
   <g id="patch_115">
    <path d="M 28.2 174.6 
L 28.2 7.2 
" style="fill: none; stroke: #000000; stroke-width: 0.8; stroke-linejoin: miter; stroke-linecap: square"/>
   </g>
   <g id="patch_116">
    <path d="M 325.2 174.6 
L 325.2 7.2 
" style="fill: none; stroke: #000000; stroke-width: 0.8; stroke-linejoin: miter; stroke-linecap: square"/>
   </g>
   <g id="patch_117">
    <path d="M 28.2 174.6 
L 325.2 174.6 
" style="fill: none; stroke: #000000; stroke-width: 0.8; stroke-linejoin: miter; stroke-linecap: square"/>
   </g>
   <g id="patch_118">
    <path d="M 28.2 7.2 
L 325.2 7.2 
" style="fill: none; stroke: #000000; stroke-width: 0.8; stroke-linejoin: miter; stroke-linecap: square"/>
   </g>
   <g id="legend_1">
    <g id="patch_119">
     <path d="M 262.048437 29.139062 
L 318.2 29.139062 
Q 320.2 29.139062 320.2 27.139062 
L 320.2 14.2 
Q 320.2 12.2 318.2 12.2 
L 262.048437 12.2 
Q 260.048437 12.2 260.048437 14.2 
L 260.048437 27.139062 
Q 260.048437 29.139062 262.048437 29.139062 
z
" style="fill: #ffffff; opacity: 0.8; stroke: #000000; stroke-linejoin: miter"/>
    </g>
    <g id="line2d_50">
     <path d="M 264.048437 19.7 
L 284.048437 19.7 
" style="fill: none; stroke: #ff0000"/>
    </g>
    <g id="text_17">
     <!-- Mean -->
     <g transform="translate(292.048437 23.2) scale(0.1 -0.1)">
      <defs>
       <path id="Cmr10-4d" d="M 225 0 
L 225 225 
Q 884 225 884 603 
L 884 3944 
Q 884 4147 225 4147 
L 225 4372 
L 1434 4372 
Q 1513 4372 1538 4300 
L 2931 678 
L 4325 4300 
Q 4350 4372 4428 4372 
L 5638 4372 
L 5638 4147 
Q 4978 4147 4978 3944 
L 4978 428 
Q 4978 225 5638 225 
L 5638 0 
L 3775 0 
L 3775 225 
Q 4434 225 4434 428 
L 4434 4153 
L 2859 72 
Q 2831 0 2753 0 
Q 2672 0 2644 72 
L 1088 4103 
L 1088 603 
Q 1088 225 1747 225 
L 1747 0 
L 225 0 
z
" transform="scale(0.015625)"/>
       <path id="Cmr10-65" d="M 1594 -72 
Q 1203 -72 876 133 
Q 550 338 364 680 
Q 178 1022 178 1403 
Q 178 1778 348 2115 
Q 519 2453 823 2661 
Q 1128 2869 1503 2869 
Q 1797 2869 2014 2770 
Q 2231 2672 2372 2497 
Q 2513 2322 2584 2084 
Q 2656 1847 2656 1563 
Q 2656 1478 2591 1478 
L 738 1478 
L 738 1409 
Q 738 878 952 497 
Q 1166 116 1650 116 
Q 1847 116 2014 203 
Q 2181 291 2304 447 
Q 2428 603 2472 781 
Q 2478 803 2495 820 
Q 2513 838 2534 838 
L 2591 838 
Q 2656 838 2656 756 
Q 2566 394 2266 161 
Q 1966 -72 1594 -72 
z
M 744 1638 
L 2203 1638 
Q 2203 1878 2136 2125 
Q 2069 2372 1912 2536 
Q 1756 2700 1503 2700 
Q 1141 2700 942 2361 
Q 744 2022 744 1638 
z
" transform="scale(0.015625)"/>
       <path id="Cmr10-61" d="M 256 628 
Q 256 1009 556 1248 
Q 856 1488 1276 1586 
Q 1697 1684 2075 1684 
L 2075 1947 
Q 2075 2131 1994 2304 
Q 1913 2478 1759 2589 
Q 1606 2700 1422 2700 
Q 997 2700 775 2509 
Q 897 2509 976 2417 
Q 1056 2325 1056 2203 
Q 1056 2075 965 1984 
Q 875 1894 750 1894 
Q 622 1894 531 1984 
Q 441 2075 441 2203 
Q 441 2541 747 2705 
Q 1053 2869 1422 2869 
Q 1681 2869 1943 2758 
Q 2206 2647 2373 2440 
Q 2541 2234 2541 1959 
L 2541 519 
Q 2541 394 2594 289 
Q 2647 184 2759 184 
Q 2866 184 2917 290 
Q 2969 397 2969 519 
L 2969 928 
L 3156 928 
L 3156 519 
Q 3156 375 3081 245 
Q 3006 116 2879 39 
Q 2753 -38 2606 -38 
Q 2419 -38 2283 107 
Q 2147 253 2131 453 
Q 2013 213 1781 70 
Q 1550 -72 1288 -72 
Q 1044 -72 808 0 
Q 572 72 414 226 
Q 256 381 256 628 
z
M 775 628 
Q 775 403 940 250 
Q 1106 97 1331 97 
Q 1538 97 1706 200 
Q 1875 303 1975 481 
Q 2075 659 2075 856 
L 2075 1522 
Q 1784 1522 1479 1426 
Q 1175 1331 975 1128 
Q 775 925 775 628 
z
" transform="scale(0.015625)"/>
       <path id="Cmr10-6e" d="M 191 0 
L 191 225 
Q 409 225 550 259 
Q 691 294 691 428 
L 691 2175 
Q 691 2347 639 2423 
Q 588 2500 491 2517 
Q 394 2534 191 2534 
L 191 2759 
L 1119 2828 
L 1119 2203 
Q 1247 2478 1498 2653 
Q 1750 2828 2047 2828 
Q 2491 2828 2714 2615 
Q 2938 2403 2938 1966 
L 2938 428 
Q 2938 294 3078 259 
Q 3219 225 3438 225 
L 3438 0 
L 1972 0 
L 1972 225 
Q 2191 225 2331 259 
Q 2472 294 2472 428 
L 2472 1947 
Q 2472 2259 2381 2461 
Q 2291 2663 2009 2663 
Q 1638 2663 1398 2366 
Q 1159 2069 1159 1691 
L 1159 428 
Q 1159 294 1300 259 
Q 1441 225 1656 225 
L 1656 0 
L 191 0 
z
" transform="scale(0.015625)"/>
      </defs>
      <use xlink:href="#Cmr10-4d"/>
      <use xlink:href="#Cmr10-65" transform="translate(91.601562 0)"/>
      <use xlink:href="#Cmr10-61" transform="translate(135.986328 0)"/>
      <use xlink:href="#Cmr10-6e" transform="translate(185.986328 0)"/>
     </g>
    </g>
   </g>
  </g>
 </g>
 <defs>
  <clipPath id="p71e58b2fd9">
   <rect x="28.2" y="7.2" width="297" height="167.4"/>
  </clipPath>
 </defs>
</svg>
